<svg viewBox="0 0 24 24" fill="#06C755" xmlns="http://www.w3.org/2000/svg">
  <path d="M12 2C6.48 2 2 6.02 2 10.88c0 3.64 2.63 6.79 6.44 8.06l-.84 3.14c-.07.26.04.54.27.68.12.08.26.12.4.12.13 0 .27-.04.38-.13l3.67-2.61c.22.02.45.03.68.03 5.52 0 10-4.02 10-8.88S17.52 2 12 2zm-3.5 7.5h-1c-.28 0-.5-.22-.5-.5s.22-.5.5-.5h1c.28 0 .5.22.5.5s-.22.5-.5.5zm4 0h-1c-.28 0-.5-.22-.5-.5s.22-.5.5-.5h1c.28 0 .5.22.5.5s-.22.5-.5.5zm4 0h-1c-.28 0-.5-.22-.5-.5s.22-.5.5-.5h1c.28 0 .5.22.5.5s-.22.5-.5.5z"></path>
</svg>
