<svg width="24" height="24" viewBox="0 0 24 24" fill="none" xmlns="http://www.w3.org/2000/svg">
<g clip-path="url(#clip0_1_2)">
<path d="M4.33333 24H19.6667C22.06 24 24 22.06 24 19.6667V4.33333C24 1.94 22.06 0 19.6667 0H4.33333C1.94 0 0 1.94 0 4.33333V19.6667C0 22.06 1.94 24 4.33333 24Z" fill="#00C300" style="fill:#00C300;fill:color(display-p3 0.0000 0.7647 0.0000);fill-opacity:1;"/>
<path d="M20.742 10.9447C20.742 7.03467 16.822 3.85333 12.004 3.85333C7.186 3.85333 3.26534 7.03467 3.26534 10.9447C3.26534 14.45 6.374 17.386 10.5733 17.9413C10.858 18.0027 11.2453 18.1293 11.3433 18.372C11.4313 18.5927 11.4007 18.9387 11.3713 19.162C11.3713 19.162 11.2693 19.7787 11.2467 19.91C11.2087 20.1307 11.0713 20.774 12.0033 20.3813C12.936 19.9887 17.0353 17.418 18.8687 15.3073H18.868C20.1353 13.9193 20.742 12.5093 20.742 10.9447ZM8.58334 13.2713H6.84734C6.59467 13.2713 6.38934 13.066 6.38934 12.8127V9.34C6.38934 9.08733 6.59467 8.882 6.84734 8.882C7.1 8.882 7.30534 9.08733 7.30534 9.34V12.354H8.58334C8.836 12.354 9.04134 12.5593 9.04134 12.812C9.04134 13.0653 8.836 13.2713 8.58334 13.2713ZM10.3787 12.8127C10.3787 13.0653 10.1733 13.2713 9.92067 13.2713C9.668 13.2713 9.46267 13.066 9.46267 12.8127V9.34C9.46267 9.08733 9.668 8.882 9.92067 8.882C10.1733 8.882 10.3787 9.08733 10.3787 9.34V12.8127ZM14.5587 12.8127C14.5587 13.0107 14.4333 13.1853 14.2453 13.2473C14.198 13.2633 14.1487 13.2713 14.1 13.2713C13.9567 13.2713 13.82 13.2027 13.734 13.088L11.9547 10.6647V12.8127C11.9547 13.0653 11.7493 13.2713 11.496 13.2713C11.2433 13.2713 11.0373 13.066 11.0373 12.8127V9.34C11.0373 9.14267 11.1633 8.968 11.3507 8.90533C11.398 8.88933 11.4467 8.882 11.496 8.882C11.6387 8.882 11.776 8.95067 11.862 9.06533L13.642 11.4887V9.34C13.642 9.08733 13.848 8.882 14.1007 8.882C14.3533 8.882 14.5587 9.08733 14.5587 9.34V12.8127ZM17.368 10.618C17.6207 10.618 17.8267 10.8233 17.8267 11.0767C17.8267 11.3293 17.6213 11.5347 17.368 11.5347H16.09V12.3547H17.368C17.6207 12.3547 17.8267 12.56 17.8267 12.8127C17.8267 13.0653 17.6207 13.2713 17.368 13.2713H15.632C15.38 13.2713 15.174 13.066 15.174 12.8127V11.0773V11.076V9.342C15.174 9.34133 15.174 9.34133 15.174 9.34067C15.174 9.088 15.3793 8.88267 15.632 8.88267H17.368C17.6207 8.88267 17.8267 9.088 17.8267 9.34067C17.8267 9.59333 17.6213 9.79867 17.368 9.79867H16.09V10.6187L17.368 10.618Z" fill="white" style="fill:white;fill-opacity:1;"/>
</g>
<defs>
<clipPath id="clip0_1_2">
<rect width="24" height="24" fill="white" style="fill:white;fill-opacity:1;"/>
</clipPath>
</defs>
</svg>
