<svg width="24" height="24" viewBox="0 0 24 24" fill="none" xmlns="http://www.w3.org/2000/svg">
<g clip-path="url(#clip0_1_11)">
<path d="M12 -1C5.376 -1 0 4.376 0 11C0 17.624 5.376 23 12 23C18.624 23 24 17.624 24 11C24 4.376 18.624 -1 12 -1ZM10.8 20.516C6.06 19.928 2.4 15.896 2.4 11C2.4 10.256 2.496 9.548 2.652 8.852L8.4 14.6V15.8C8.4 17.12 9.48 18.2 10.8 18.2V20.516ZM19.08 17.468C18.768 16.496 17.88 15.8 16.8 15.8H15.6V12.2C15.6 11.54 15.06 11 14.4 11H7.2V8.6H9.6C10.26 8.6 10.8 8.06 10.8 7.4V5H13.2C14.52 5 15.6 3.92 15.6 2.6V2.108C19.116 3.536 21.6 6.98 21.6 11C21.6 13.496 20.64 15.764 19.08 17.468Z" fill="#4285F4" style="fill:#4285F4;fill:color(display-p3 0.2588 0.5216 0.9569);fill-opacity:1;"/>
</g>
<defs>
<clipPath id="clip0_1_11">
<rect width="24" height="24" fill="white" style="fill:white;fill-opacity:1;"/>
</clipPath>
</defs>
</svg>
