<svg width="502" height="117" viewBox="0 0 502 117" fill="none" xmlns="http://www.w3.org/2000/svg">
<g clip-path="url(#clip0_14_67050)">
<path d="M345.3 70.1001V67.2001H340.2C336.7 67.2001 335.3 67.8001 335.3 70.2001C335.3 72.1001 336.5 72.8001 339.1 72.8001C342.2 72.8001 344.4 71.7001 345.3 70.1001ZM354.2 59.0001V79.0001H346.2L345.4 75.9001C344.3 77.7001 341.4 79.5001 336.5 79.5001C330.2 79.5001 326.7 76.7001 326.7 70.6001C326.7 63.9001 330.7 61.5001 338.7 61.5001H345.4V61.3001C345.4 57.9001 344.4 56.9001 339.5 56.9001C337.1 56.9001 334.6 57.1001 332.2 57.4001V49.9001C335 49.6001 337.8 49.4001 340.6 49.4001C350.4 49.4001 354.1 52.6001 354.2 59.0001ZM174.2 61.2001L169.8 47.0001H169.2L164.7 61.1001H174.2V61.2001ZM176.8 69.5001H162.2L159.2 78.9001H149.5L163.3 38.2001H175.9L189.6 78.9001H179.7L176.8 69.5001ZM313.5 64.5001C313.5 59.4001 312.7 55.9001 308 55.9001C303.3 55.9001 302.1 59.0001 302.1 64.5001C302.1 69.7001 303.2 72.9001 308 72.9001C312.8 72.9001 313.5 69.2001 313.5 64.5001ZM322.6 64.5001C322.6 72.9001 320.4 79.5001 311.1 79.5001C305.6 79.5001 303.5 77.8001 302.4 75.3001L301.9 79.0001H293.7V38.1001H302.6V52.9001C303.8 51.2001 306.1 49.4001 311.1 49.4001C320.4 49.4001 322.6 55.1001 322.6 64.5001ZM277.4 70.2001V67.3001H272.3C268.8 67.3001 267.4 67.9001 267.4 70.3001C267.4 72.2001 268.6 72.9001 271.2 72.9001C274.2 72.9001 276.5 71.8001 277.4 70.2001ZM286.2 59.1001V79.0001H278.2L277.4 75.9001C276.3 77.7001 273.4 79.5001 268.5 79.5001C262.2 79.5001 258.7 76.7001 258.7 70.6001C258.7 63.9001 262.7 61.5001 270.7 61.5001H277.4V61.3001C277.4 57.9001 276.4 56.9001 271.5 56.9001C269.1 56.9001 266.6 57.1001 264.2 57.4001V50.0001C267 49.7001 269.8 49.5001 272.6 49.5001C282.5 49.5001 286.2 52.7001 286.2 59.1001ZM245.5 64.5001C245.5 59.5001 244.7 56.0001 240 56.0001C235.3 56.0001 234.1 59.1001 234.1 64.5001C234.1 69.7001 235.2 73.0001 240 73.0001C244.8 73.0001 245.5 69.2001 245.5 64.5001ZM254.6 64.5001C254.6 73.0001 252.4 79.6001 243.1 79.6001C237.6 79.6001 235.5 77.9001 234.4 75.4001L233.9 79.1001H225.7V38.1001H234.6V52.9001C235.8 51.2001 238.1 49.5001 243.1 49.5001C252.4 49.4001 254.6 55.1001 254.6 64.5001ZM209.7 50.0001H218.6V79.0001H209.7V50.0001ZM209.3 41.8001C209.3 37.6001 210.2 37.3001 214.2 37.3001C218.2 37.3001 219.1 37.6001 219.1 41.8001C219.1 46.0001 218.3 46.4001 214.2 46.4001C210.1 46.4001 209.3 45.9001 209.3 41.8001ZM193.8 38.1001H202.8V79.0001H193.8V38.1001ZM473.7 52.0001C475.3 54.0001 476.2 56.5001 476 59.0001V79.0001H471.4V60.6001C471.5 58.7001 471.1 56.9001 470.2 55.3001C469.1 54.0001 467.5 53.4001 465.8 53.5001C464.1 53.4001 462.5 53.8001 461 54.6001C459.6 55.5001 458.6 57.0001 458.2 58.6001V79.0001H453.6V60.6001C453.7 58.7001 453.3 56.9001 452.4 55.3001C451.4 54.1001 449.9 53.4001 448.3 53.6001C446.6 53.5001 445 53.9001 443.5 54.7001C442 55.7001 441 57.2001 440.6 58.9001V79.0001H436V50.0001H440.6V53.8001C441.3 52.3001 442.5 51.1001 444 50.4001C445.6 49.7001 447.3 49.4001 449 49.4001C453.3 49.4001 456.1 51.0001 457.5 54.1001C458.9 51.0001 462 49.4001 466.5 49.4001C469.8 49.4001 472.2 50.3001 473.7 52.0001ZM420.7 74.2001C422 73.5001 422.9 72.3001 423.2 70.9001C423.8 68.7001 424 66.5001 423.9 64.3001C424 62.1001 423.7 59.8001 423.1 57.7001C422.7 56.3001 421.8 55.1001 420.5 54.3001C419 53.6001 417.3 53.2001 415.6 53.3001C413.9 53.2001 412.2 53.5001 410.6 54.3001C409.4 55.0001 408.4 56.2001 408.1 57.7001C407.5 59.9001 407.3 62.1001 407.3 64.3001C407.2 66.5001 407.5 68.7001 408.1 70.9001C408.5 72.3001 409.4 73.5001 410.7 74.2001C412.2 74.9001 413.9 75.3001 415.6 75.2001C417.4 75.3001 419.2 75.0001 420.7 74.2001ZM408.4 77.7001C406.4 76.8001 404.8 75.1001 404 73.1001C402 67.4001 402 61.2001 404 55.5001C404.9 53.5001 406.4 51.8001 408.4 50.9001C410.7 49.9001 413.2 49.4001 415.7 49.5001C418.2 49.4001 420.7 49.9001 423 50.9001C425 51.9001 426.5 53.5001 427.4 55.5001C429.4 61.2001 429.4 67.4001 427.4 73.1001C426.5 75.1001 425 76.8001 423 77.7001C420.7 78.7001 418.2 79.2001 415.7 79.1001C413.1 79.1001 410.7 78.6001 408.4 77.7001ZM382.1 77.7001C380.1 76.7001 378.5 75.1001 377.7 73.1001C375.7 67.4001 375.7 61.2001 377.7 55.5001C378.6 53.5001 380.1 51.8001 382.1 50.9001C384.4 49.9001 386.9 49.4001 389.4 49.5001C391.9 49.5001 394.4 49.8001 396.9 50.6001V54.8001C394.5 53.9001 392 53.5001 389.5 53.6001C387.8 53.5001 386.1 53.9001 384.5 54.6001C383.2 55.3001 382.3 56.5001 381.9 57.9001C381.3 60.0001 381 62.2001 381.1 64.5001C381 66.7001 381.3 68.9001 381.9 71.0001C382.3 72.4001 383.2 73.6001 384.5 74.3001C386.1 75.0001 387.8 75.3001 389.6 75.3001C392.1 75.4001 394.6 75.0001 397 74.1001V78.0001C395.9 78.3001 394.8 78.6001 393.6 78.7001C392.2 78.9001 390.8 79.0001 389.4 79.0001C386.9 79.2001 384.4 78.7001 382.1 77.7001ZM364.4 78.8001C363.9 78.7001 363.5 78.3001 363.3 77.8001C363 77.0001 362.9 76.2001 363 75.4001C362.9 74.4001 363.1 73.4001 363.8 72.6001C365.6 71.7001 367.7 71.7001 369.5 72.6001C370.1 73.4001 370.4 74.4001 370.3 75.4001C370.5 76.4001 370.2 77.5001 369.5 78.3001C368.7 78.9001 367.7 79.1001 366.7 79.0001C365.9 79.0001 365.2 78.9001 364.4 78.8001ZM98.8999 79.8001C93.9999 80.0001 94.4999 77.5001 97.3999 73.6001C104.1 64.6001 116.7 52.2001 117.1 43.3001C117.9 31.8001 106.3 28.0001 94.2999 28.1001C86.4999 28.4001 78.7999 30.0001 71.4999 32.7001C51.1999 39.8001 38.4999 51.3001 30.4999 63.9001C21.9999 76.4001 24.7999 88.4001 42.6999 88.8001C56.3999 88.3001 65.3999 84.4001 74.6999 79.7001C74.6999 79.7001 48.8999 87.1001 39.4999 81.7001C38.1999 81.0001 37.2999 79.7001 37.1999 78.2001C37.1999 73.7001 44.5999 69.1001 48.7999 67.6001V59.8001C58.0999 63.4001 68.5999 61.7001 76.2999 55.2001C76.4999 55.9001 76.4999 56.7001 76.4999 57.4001H78.3999C78.4999 56.1001 78.1999 54.9001 77.4999 53.8001C76.4999 52.2001 74.7999 51.2001 72.8999 51.2001C73.9999 51.7001 74.8999 52.5001 75.5999 53.6001C68.9999 59.1001 60.0999 60.9001 51.9999 58.3001L58.1999 52.2001L56.4999 47.8001C69.2999 43.1001 82.4999 39.5001 95.9999 37.3001L92.1999 34.2001L94.1999 33.0001C104.4 35.8001 111.1 37.9001 110.7 43.3001C110.5 44.4001 110.2 45.4001 109.7 46.4001C106.7 52.3001 97.8999 62.0001 94.3999 66.1001C92.0999 68.6001 89.9999 71.2001 88.0999 74.0001C86.4999 76.1001 85.4999 78.6001 85.2999 81.2001C85.2999 99.0001 137.4 73.0001 147.5 66.0001C132.6 72.4001 116.6 78.6001 98.8999 79.8001Z" fill="#575757" style="fill:#575757;fill:color(display-p3 0.3426 0.3426 0.3426);fill-opacity:1;"/>
</g>
<defs>
<clipPath id="clip0_14_67050">
<rect width="450.1" height="60.8" fill="white" style="fill:white;fill-opacity:1;" transform="translate(26 28)"/>
</clipPath>
</defs>
</svg>
