<svg xmlns="http://www.w3.org/2000/svg" role="img" viewBox="48.10 373.10 982.80 333.80"><g fill="#ed1c24"><path d="M277.85 393.44c9.93-1.93 20.08-1.53 30.14-1.42 15.17.96 30.55 5.1 43 14.1 12.95 9.29 21.91 24.03 23.95 39.86 2.07 21.46-3.62 43.17-14.11 61.85-13.89 24.73-34.78 44.91-57.94 60.97-8.68 5.94-17.74 11.36-27.31 15.75-4.24 1.86-8.55 3.77-13.2 4.29-.41-1.95 1.41-2.98 2.64-3.99 15.94-11.34 31.27-24.14 42.52-40.32 6.73-10 12.23-21.84 11.04-34.17-1.06-9.32-8.59-16.5-17.11-19.5 3.78-3.88 7.47-8.29 8.44-13.78 1.52-6.76-2.43-13.63-7.92-17.37-6.96-4.8-15.82-5.43-24.01-4.87-18.85 1.27-37.14 6.76-54.63 13.65-31 12.47-59.86 30.04-85.7 51.18-23.78 19.59-45.14 42.52-60.93 69.09-1.41 2.22-2.4 4.75-4.26 6.66-1.47 1.4-4.42.69-4.62-1.48-.93-5.97.93-11.87 2.67-17.51 8.52-27.64 23.99-52.58 41.61-75.31 24.03-30.64 53.67-56.84 86.91-77.11 24.03-15.01 50.86-25.75 78.82-30.57zm643.61 23.22c19.7-2.74 40.48.19 57.95 9.96 18.24 10.13 31.15 29.54 32.71 50.42.38 6.63.39 13.3-.04 19.93-1.78 19.55-13.22 38-30 48.22-13.68 8.54-30.1 11.54-46.03 11.67-16.57 0-33.71-3.07-47.86-12.09-13.45-8.46-23.34-22.22-27.47-37.52-3.06-12.21-3.15-25.11-.84-37.45 3.76-19.13 17-35.95 34.38-44.65 8.54-4.22 17.76-7.11 27.2-8.49m6 31.98c-7.42 1.32-14.56 4.61-20.27 9.55-13.69 12.21-16.21 34.51-6.36 49.82 6.03 9.75 16.93 15.87 28.15 17.37 15.44 2.36 32.52-3.82 41.15-17.21 5.9-9.14 7.08-20.73 4.76-31.21-2.35-10.27-9.4-19.31-18.86-24-8.67-4.69-18.91-5.95-28.57-4.32zm-524.97-31.37c45.81-.05 91.63-.01 137.44-.02.02 10.72.01 21.45.01 32.18-16.73.08-33.46-.12-50.19.11.15 35.48.02 70.97.07 106.45-12.36.02-24.71.01-37.07.01-.01-35.52.01-71.04-.01-106.56H402.5c-.01-10.73.02-21.45-.01-32.17zm156.39-.02c41.44-.02 82.89.04 124.33-.03.09 10.74.02 21.47.04 32.21-29.08.01-58.16.02-87.23 0-.04 6.96-.02 13.92-.02 20.88 18.88.01 37.75-.01 56.63 0 0 9.77 0 19.54-.01 29.31-18.87.02-37.74 0-56.62.01 0 8.1-.01 16.2 0 24.31 29.09 0 58.17-.01 87.25 0 .01 10.69 0 21.37 0 32.06H558.88c0-46.25-.01-92.5 0-138.75zm150.55 0c28.2 0 56.39-.02 84.59.02 12.19.13 25.02 1.51 35.59 8.1 9.41 5.88 14.29 16.86 15.44 27.58 1.28 11.61.21 24.41-7.15 33.98-7 8.74-17.27 14.26-27.85 17.48 11.55 17.2 23.13 34.38 34.67 51.58-12.91.02-25.82.01-38.74.01-11.7-17.42-23.39-34.83-35.1-52.24-8.11-.01-16.21-.01-24.31 0 0 17.4-.02 34.81.01 52.22-12.39.04-24.77.03-37.15 0 .02-46.24 0-92.48 0-138.73m37.14 29.63c.01 9.61-.06 19.22.04 28.83 13.14-.05 26.28-.02 39.42-.01 5.29 0 11.02 0 15.66-2.91 6.08-4.54 7.2-14.12 2.65-20.13-3.13-4.64-9.22-5.52-14.38-5.74-14.46-.11-28.93-.02-43.39-.04z"/><path d="M249.62 480.65c9.03-3.76 18.5-7.57 28.44-7.37 3.88.16 8.74 1.14 10.35 5.17 1.33 4.3-2.04 8.29-5.26 10.71-3.11 2.64-7.4 2.07-11.16 2.76-19.79 2.99-38.88 10.03-56.31 19.79-4.14 2.14-7.81 5.11-12.1 6.97l-.05-1.6c2-3.94 5.45-6.92 8.46-10.08 11.15-10.56 23.84-19.59 37.63-26.35z"/><path d="M402.16 485.11c2.01-1.14 4.71.55 4.61 2.85-.18 3.68-1.2 7.25-1.99 10.83-7.18 28.69-21.85 54.97-39.27 78.66-20.32 27.33-45.01 51.47-72.98 70.92-27.94 19.33-59.63 34.12-93.42 39.21-8.29 1.4-16.7 1.61-25.09 1.47-16.67.48-33.85-3-48.07-12.01-14.88-9.37-25.22-25.66-27.13-43.16-1.53-19.08 2.93-38.34 11.47-55.38 12.7-25.27 32.97-46.03 55.58-62.67 10.44-7.58 21.45-14.45 33.21-19.79 3.56-1.51 7.14-3.15 10.98-3.8 2.95-.29.82 2.68-.54 3.31-15.24 10.87-28.38 24.57-38.94 40-8.9 13.14-16.37 27.5-20.19 42.97-2.55 10.21-2.17 21.66 3.33 30.87 4.65 7.84 12.89 12.87 21.51 15.28 17.25 4.91 35.6 2.33 52.66-2.09 28.82-7.84 55.59-21.88 80.36-38.36 25.31-17.07 48.94-37.08 67.77-61.24 8.52-10.72 16.3-22.05 23.01-33.99.88-1.4 1.63-3.03 3.13-3.88z"/><path d="M248.55 511.78c8.96-1.38 18.75-1.72 26.99 2.64 5.37 2.78 9.02 8.55 8.94 14.64-.01 9.32-4.93 17.75-10.4 24.97-10.96 13.93-25.65 24.61-41.46 32.45-12.95 6.25-27.06 10.89-41.57 10.82-7.6-.17-16.14-2.04-20.96-8.45-4.62-6.15-3.56-14.59-.76-21.28 5.41-12.67 15.35-22.77 25.99-31.23 15.58-12.01 33.75-21.17 53.23-24.56zm152.88 77.29c12.85-.03 25.71 0 38.57-.01 0 4.17.01 8.34-.03 12.52-8.59-.03-17.19-.02-25.78-.01-.01 2.82 0 5.65 0 8.48 7.58.02 15.16 0 22.75.01 0 4.17.01 8.34-.01 12.51-7.58-.01-15.16-.01-22.74 0v8.92c8.73.03 17.46-.01 26.19.02-.01 4.16 0 8.32-.01 12.49-12.98-.02-25.97.05-38.96-.04.05-18.3.01-36.59.02-54.89zm46.26-.01c3.79-.01 7.58 0 11.37-.02 7.05 9.97 13.94 20.05 20.98 30.04.05-10.01 0-20.01.02-30.02 4.21-.01 8.42-.01 12.63.01 0 18.3-.01 36.61.01 54.91-3.55.02-7.1.02-10.65.02-7.26-10.37-14.47-20.78-21.73-31.15-.02 10.38 0 20.76-.01 31.15h-12.62c0-18.32-.01-36.63 0-54.94zm51 0c14.04 0 28.08-.01 42.13 0-.01 4.29-.01 8.58 0 12.87-4.9.02-9.8 0-14.69.02-.01 14.01 0 28.03-.01 42.04-4.26.01-8.52.03-12.78-.03.06-14.01.02-28.01.03-42.01-4.9-.02-9.79-.01-14.68-.01-.01-4.3-.01-8.59 0-12.88zm48.13 0c12.85-.01 25.7 0 38.55 0 .01 4.16 0 8.32.01 12.49-8.62.03-17.25.01-25.87.01.01 2.79-.01 5.57-.09 8.36 7.62.3 15.26.05 22.89.14 0 4.16 0 8.32.01 12.49-7.61.04-15.21 0-22.81.02-.02 2.97-.02 5.94-.01 8.92 8.75.03 17.51-.01 26.26.02-.02 4.16-.01 8.32 0 12.48-12.98.02-25.97.01-38.95.01 0-18.32-.01-36.63.01-54.94zm46.18 0c7.99.03 15.99-.07 23.98.03 5.89.05 12.14 2.39 15.46 7.48 5.73 9.04 3.41 23.21-6.77 28.08 4.06 6.43 8.08 12.89 12.12 19.35-4.99 0-9.97-.01-14.95.01-3.57-5.64-6.9-11.44-10.55-17.03-2.17.06-4.32.09-6.47.1-.01 5.63-.01 11.27 0 16.91-4.28.01-8.55.01-12.82.01v-54.94m12.82 12.64c.03 4.35-.12 8.71.12 13.06 4.08-.29 8.24.34 12.29-.46 5.45-1.24 5.9-10.31.59-12.03-4.23-1.11-8.68-.39-13-.57zm33.61-12.63c14.05-.02 28.09-.02 42.14 0-.01 4.28-.01 8.57 0 12.86-4.9.02-9.8 0-14.69.02-.01 14.01-.01 28.03 0 42.04-4.26.01-8.51.01-12.76 0 0-14.01.01-28.03 0-42.04-4.9-.02-9.8 0-14.69-.02v-12.86zm58.79-.37c3.73-.02 7.46.01 11.2-.08 7.36 18.4 14.41 36.92 21.63 55.38-4.47 0-8.93-.02-13.39.02-1.55-3.94-2.98-7.94-4.48-11.89-6.3-.01-12.59-.02-18.88 0-1.47 3.96-2.95 7.91-4.43 11.87-4.39 0-8.77 0-13.16-.01 7.16-18.43 14.37-36.85 21.51-55.29m5.51 18.16c-1.62 4.29-3.24 8.58-4.82 12.89 3.22-.01 6.44-.01 9.67.01-1.59-4.32-3.18-8.62-4.85-12.9zm32.58-17.79c4.26-.02 8.54-.02 12.81-.01 0 18.31.01 36.62 0 54.94-4.28 0-8.55.01-12.82-.01.02-18.31.01-36.62.01-54.92zm22.69-.01c3.89.01 7.79-.11 11.68.14 6.74 10.1 13.84 19.97 20.75 29.97.01-10.04 0-20.07 0-30.1 4.21-.02 8.42-.02 12.63-.01.01 18.31 0 36.62 0 54.93-3.58.01-7.15.02-10.72-.02-7.2-10.4-14.46-20.78-21.71-31.15-.01 10.39-.01 20.78.01 31.17-4.22.02-8.43.01-12.64.01v-54.94zm54.5 0c4.39 0 8.79-.02 13.19.02 3.9 7.06 8.05 13.98 11.86 21.08 4.24-6.83 8.13-13.88 11.97-20.94 4.44-.32 8.9-.11 13.36-.16 0 18.31-.01 36.62 0 54.93-4.24.01-8.47.01-12.7 0-.02-10.48.05-20.97-.03-31.45-4.14 6.59-8 13.34-12.13 19.93-.98-.5-1.74-1.2-2.29-2.11-3.52-5.93-7.08-11.83-10.66-17.72-.02 10.45 0 20.9-.01 31.36H813.5v-54.94zm59.81.01c12.85-.02 25.71-.01 38.56-.01 0 4.17.01 8.34-.01 12.51-8.6-.01-17.2-.01-25.8 0-.01 2.82 0 5.65.01 8.49 7.58 0 15.16-.01 22.75 0-.01 4.17 0 8.34-.01 12.51-7.59-.01-15.17-.01-22.75 0v8.92c8.73.03 17.46-.02 26.19.03V644c-12.98 0-25.97.01-38.95-.01.02-18.31.01-36.62.01-54.92zm46.26-.01c3.8-.01 7.6-.01 11.41 0 7 10.01 13.94 20.06 20.96 30.06 0-10.02-.01-20.04 0-30.06 4.21-.01 8.42-.02 12.63.02 0 18.29-.03 36.59.02 54.88-3.56.05-7.11.04-10.66.04-7.27-10.37-14.48-20.78-21.74-31.16-.01 10.39 0 20.77 0 31.16h-12.63c0-18.32-.01-36.63.01-54.94zm51 0c13.94 0 27.88-.01 41.82 0v12.88c-4.8 0-9.6-.01-14.39 0-.01 14.02 0 28.04 0 42.06-4.26 0-8.51 0-12.76-.01.01-14.01.01-28.03 0-42.04-4.89-.02-9.79-.01-14.67-.01-.02-4.3-.02-8.59 0-12.88z"/></g></svg>