<?xml version="1.0" encoding="utf-8"?>
<!-- Generator: Adobe Illustrator 16.0.3, SVG Export Plug-In . SVG Version: 6.00 Build 0)  -->
<svg version="1.1" id="CentralGroup_Logo" xmlns="http://www.w3.org/2000/svg" xmlns:xlink="http://www.w3.org/1999/xlink" x="0px"
	 y="0px" width="820px" height="85.91px" viewBox="0 0 820 85.91" enable-background="new 0 0 820 85.91" xml:space="preserve">
<path transform="translate(64.802 10.006)" fill="#000" d="M2.574,53.25l0.354-0.562l-9.466-6.815l-0.403,0.628
	c-1.625,2.585-3.915,4.684-6.63,6.072c-2.928,1.433-6.155,2.146-9.414,2.086c-2.676,0.03-5.33-0.515-7.775-1.6
	c-2.316-1.046-4.389-2.56-6.09-4.446c-1.767-1.998-3.13-4.321-4.014-6.839c-1.938-5.666-1.938-11.816,0-17.483
	c0.896-2.535,2.274-4.873,4.063-6.884c1.72-1.909,3.806-3.451,6.139-4.532c2.41-1.105,5.035-1.665,7.685-1.64
	c3.179-0.055,6.319,0.661,9.159,2.084c2.683,1.411,4.942,3.506,6.549,6.075l0.401,0.629l0.605-0.435l8.236-5.906l0.554-0.398
	l-0.38-0.57C-0.468,8.729-4.065,5.482-8.296,3.288c-8.531-4.106-18.409-4.372-27.146-0.727c-3.795,1.644-7.233,4.013-10.122,6.975
	c-2.911,3.031-5.207,6.596-6.76,10.501c-1.663,4.145-2.504,8.573-2.476,13.038c-0.044,4.494,0.76,8.959,2.374,13.155
	c1.493,3.871,3.735,7.411,6.593,10.42c2.845,2.942,6.269,5.265,10.054,6.818c4.034,1.641,8.353,2.467,12.707,2.425
	c5.211,0.079,10.369-1.043,15.077-3.275C-3.664,60.548-0.002,57.302,2.574,53.25z M57.419,64.4V54.08H32.79V37.36h22.044V27.045
	H32.79V11.824h23.792V1.507H21.396V64.4H57.419z M118.222,1.507v43.244L87.519,1.507H76.382V64.4h11.646V21.154L118.729,64.4h11.139
	V1.507H118.222z M163.302,11.824V64.4h12.062V11.824h16.379V1.507h-44.821v10.315L163.302,11.824z M242.045,64.4h12.78
	L241.89,40.425c8.153-2.761,13.59-10.471,13.448-19.076c0-11.87-8.784-19.834-21.84-19.834h-24.688V64.4h11.395V41.802h9.892
	L242.045,64.4z M243.673,21.593c0,4.728-2.826,9.779-10.767,9.779h-12.701V11.826h12.704c7.936,0,10.764,5.044,10.764,9.769V21.593z
	 M318.38,64.4h12.684L305.701,1.507H294.6L269.157,64.4h12.438l5.324-14.142h26.139L318.38,64.4z M309.121,39.95h-18.254
	l9.127-24.237L309.121,39.95z M359.255,54.077V1.495h-12.063v62.907h40.9V54.077H359.255z"/>
<path transform="translate(256.468 10.006)" fill="#AAA" d="M242.884,29.455v10.313h16.191c-0.32,1.982-0.944,3.904-1.848,5.699
	c-0.939,1.852-2.21,3.517-3.751,4.912c-1.554,1.375-3.353,2.443-5.305,3.148c-2.135,0.765-4.388,1.145-6.657,1.122
	c-2.803,0.027-5.583-0.533-8.156-1.646c-2.438-1.062-4.639-2.605-6.468-4.539c-1.861-1.998-3.324-4.335-4.306-6.886
	c-2.099-5.596-2.099-11.765,0-17.363c0.981-2.55,2.444-4.887,4.306-6.885c1.824-1.924,4.024-3.454,6.464-4.493
	c2.582-1.087,5.359-1.634,8.162-1.608c3.248-0.028,6.451,0.759,9.314,2.29c2.944,1.625,5.455,3.93,7.323,6.724l0.41,0.591
	l0.582-0.419l8.237-5.906l0.54-0.39l-0.354-0.565c-2.657-4.245-6.396-7.705-10.836-10.022c-4.681-2.397-9.878-3.61-15.136-3.535
	c-4.483-0.037-8.928,0.815-13.079,2.507c-3.921,1.606-7.48,3.982-10.469,6.986c-6.183,6.281-9.611,14.768-9.521,23.582
	c-0.04,4.471,0.813,8.906,2.508,13.042c1.603,3.886,3.96,7.414,6.935,10.379c3.007,2.953,6.56,5.292,10.458,6.885
	c4.152,1.69,8.599,2.543,13.082,2.506c4.282,0.056,8.531-0.741,12.502-2.341c3.651-1.503,6.937-3.77,9.635-6.653
	c2.74-2.995,4.839-6.515,6.171-10.349c1.486-4.303,2.219-8.828,2.163-13.38v-3.706H242.884z M335.532,21.339
	c0-11.87-8.783-19.835-21.84-19.835h-24.689V64.4h11.395V41.802h9.901L322.247,64.4h12.782l-12.936-23.976
	C330.245,37.662,335.679,29.946,335.532,21.339z M300.399,11.817h12.704c7.938,0,10.766,5.044,10.766,9.768
	c0,4.725-2.828,9.781-10.766,9.781h-12.704V11.817z M405.381,9.659c-3.004-2.99-6.549-5.385-10.446-7.054
	c-4.043-1.735-8.398-2.619-12.799-2.595c-4.439-0.024-8.837,0.857-12.922,2.595c-3.938,1.678-7.527,4.084-10.575,7.092
	c-3.037,3.02-5.462,6.598-7.141,10.538c-3.459,8.196-3.459,17.441,0,25.639c1.669,3.895,4.062,7.441,7.052,10.446
	c3,2.985,6.547,5.366,10.446,7.01c8.234,3.42,17.496,3.403,25.719-0.041c3.932-1.674,7.516-4.062,10.573-7.048
	c3.042-3,5.469-6.567,7.143-10.502c3.459-8.195,3.459-17.441,0-25.637C410.762,16.206,408.369,12.663,405.381,9.659z
	 M402.553,32.991c0.021,2.886-0.526,5.748-1.608,8.424c-1.044,2.548-2.548,4.88-4.436,6.883c-1.859,1.971-4.087,3.554-6.556,4.664
	c-5.086,2.249-10.884,2.249-15.971,0c-2.469-1.11-4.696-2.693-6.556-4.664c-1.89-2.003-3.392-4.335-4.435-6.883
	c-1.085-2.676-1.632-5.538-1.609-8.424c-0.011-2.886,0.536-5.748,1.611-8.426c2.026-5.144,5.97-9.303,10.998-11.602
	c5.07-2.297,10.887-2.297,15.959,0c5.028,2.298,8.969,6.458,10.995,11.602C402.02,27.243,402.566,30.105,402.553,32.991z
	 M473.06,1.507v36.069c0.285,4.532-1.024,9.024-3.707,12.69c-5.476,5.705-14.542,5.891-20.247,0.414
	c-0.128-0.12-0.251-0.245-0.371-0.37c-2.641-3.7-3.923-8.198-3.626-12.734V1.507h-12.062V38.15
	c-0.051,3.893,0.552,7.77,1.785,11.464c1.101,3.255,2.865,6.246,5.184,8.782c2.295,2.455,5.114,4.362,8.243,5.584
	c3.44,1.319,7.099,1.974,10.782,1.922c3.663,0.047,7.298-0.621,10.706-1.966c3.132-1.252,5.955-3.169,8.275-5.619
	c2.344-2.531,4.136-5.522,5.266-8.781c1.261-3.665,1.88-7.521,1.831-11.396V1.507H473.06z M531.683,1.507h-24.688V64.4h11.394
	V41.802h13.295c5.981,0.273,11.823-1.863,16.217-5.935c3.736-3.892,5.763-9.117,5.626-14.512
	C553.521,9.479,544.756,1.507,531.683,1.507z M518.388,11.819h12.707c7.938,0,10.766,5.047,10.766,9.766
	c0,4.72-2.828,9.781-10.766,9.781h-12.707V11.819z"/>
</svg>
