<svg width="470" height="117" viewBox="0 0 470 117" fill="none" xmlns="http://www.w3.org/2000/svg">
<g clip-path="url(#clip0_14_67051)">
<path d="M27.1717 46.1192C23.3677 46.1192 20.2715 43.0202 20.2715 39.2128C20.2715 35.4052 23.3677 32.3062 27.1717 32.3062C30.9755 32.3062 34.0717 35.4052 34.0717 39.2128C34.0717 43.0202 30.9755 46.1192 27.1717 46.1192ZM27.1717 35.0179C24.8611 35.0179 22.9807 36.9001 22.9807 39.2167C22.9807 41.5331 24.8611 43.4153 27.1717 43.4153C29.482 43.4153 31.3664 41.5331 31.3664 39.2167C31.3664 36.9001 29.4859 35.0179 27.1717 35.0179Z" fill="#7C7C7C" style="fill:#7C7C7C;fill:color(display-p3 0.4877 0.4877 0.4877);fill-opacity:1;"/>
<path d="M27.1717 65.6007C23.3677 65.6007 20.2715 62.5014 20.2715 58.694C20.2715 54.8866 23.3677 51.7876 27.1717 51.7876C30.9755 51.7876 34.0717 54.8866 34.0717 58.694C34.0717 62.5014 30.9755 65.6007 27.1717 65.6007ZM27.1717 54.4993C24.8611 54.4993 22.9807 56.3816 22.9807 58.694C22.9807 61.0067 24.8611 62.8928 27.1717 62.8928C29.482 62.8928 31.3664 61.0106 31.3664 58.694C31.3664 56.3777 29.4859 54.4993 27.1717 54.4993Z" fill="#7C7C7C" style="fill:#7C7C7C;fill:color(display-p3 0.4877 0.4877 0.4877);fill-opacity:1;"/>
<path d="M27.1717 85.0719C23.3677 85.0719 20.2715 81.9726 20.2715 78.1652C20.2715 74.3578 23.3677 71.2588 27.1717 71.2588C30.9755 71.2588 34.0717 74.3578 34.0717 78.1652C34.0717 81.9726 30.9755 85.0719 27.1717 85.0719ZM27.1717 73.9705C24.8611 73.9705 22.9807 75.8527 22.9807 78.1691C22.9807 80.4857 24.8611 82.3679 27.1717 82.3679C29.482 82.3679 31.3664 80.4857 31.3664 78.1691C31.3664 75.8527 29.4859 73.9705 27.1717 73.9705Z" fill="#7C7C7C" style="fill:#7C7C7C;fill:color(display-p3 0.4877 0.4877 0.4877);fill-opacity:1;"/>
<path d="M79.6317 46.1192C75.8278 46.1192 72.7314 43.0202 72.7314 39.2128C72.7314 35.4052 75.8278 32.3062 79.6317 32.3062C83.4355 32.3062 86.5317 35.4052 86.5317 39.2128C86.5317 43.0202 83.4355 46.1192 79.6317 46.1192ZM79.6317 35.0179C77.3211 35.0179 75.4367 36.9001 75.4367 39.2167C75.4367 41.5331 77.3172 43.4153 79.6317 43.4153C81.9459 43.4153 83.8264 41.5331 83.8264 39.2167C83.8264 36.9001 81.9459 35.0179 79.6317 35.0179Z" fill="#7C7C7C" style="fill:#7C7C7C;fill:color(display-p3 0.4877 0.4877 0.4877);fill-opacity:1;"/>
<path d="M79.6317 65.6007C75.8278 65.6007 72.7314 62.5014 72.7314 58.694C72.7314 54.8866 75.8278 51.7876 79.6317 51.7876C83.4355 51.7876 86.5317 54.8866 86.5317 58.694C86.5317 62.5014 83.4355 65.6007 79.6317 65.6007ZM79.6317 54.4993C77.3211 54.4993 75.4367 56.3816 75.4367 58.694C75.4367 61.0067 77.3172 62.8928 79.6317 62.8928C81.9459 62.8928 83.8264 61.0106 83.8264 58.694C83.8264 56.3777 81.9459 54.4993 79.6317 54.4993Z" fill="#7C7C7C" style="fill:#7C7C7C;fill:color(display-p3 0.4877 0.4877 0.4877);fill-opacity:1;"/>
<path d="M79.6317 85.0719C75.8278 85.0719 72.7314 81.9726 72.7314 78.1652C72.7314 74.3578 75.8278 71.2588 79.6317 71.2588C83.4355 71.2588 86.5317 74.3578 86.5317 78.1652C86.5317 81.9726 83.4355 85.0719 79.6317 85.0719ZM79.6317 73.9705C77.3211 73.9705 75.4367 75.8527 75.4367 78.1691C75.4367 80.4857 77.3172 82.3679 79.6317 82.3679C81.9459 82.3679 83.8264 80.4857 83.8264 78.1691C83.8264 75.8527 81.9459 73.9705 79.6317 73.9705Z" fill="#7C7C7C" style="fill:#7C7C7C;fill:color(display-p3 0.4877 0.4877 0.4877);fill-opacity:1;"/>
<path d="M53.4029 55.8599C49.5991 55.8599 46.5029 52.7609 46.5029 48.9533C46.5029 45.1459 49.5991 42.0469 53.4029 42.0469C57.207 42.0469 60.3032 45.1459 60.3032 48.9533C60.3032 52.7609 57.207 55.8599 53.4029 55.8599ZM53.4029 44.7586C51.0926 44.7586 49.2082 46.6408 49.2082 48.9574C49.2082 51.2738 51.0887 53.156 53.4029 53.156C55.7174 53.156 57.5979 51.2738 57.5979 48.9574C57.5979 46.6408 55.7174 44.7586 53.4029 44.7586Z" fill="#7C7C7C" style="fill:#7C7C7C;fill:color(display-p3 0.4877 0.4877 0.4877);fill-opacity:1;"/>
<path d="M53.4039 36.3887C49.6001 36.3887 46.5039 33.2897 46.5039 29.4823C46.5039 25.6749 49.6001 22.5757 53.4039 22.5757C57.2077 22.5757 60.3041 25.6749 60.3041 29.4823C60.3041 33.2897 57.2077 36.3887 53.4039 36.3887ZM53.4039 25.2874C51.0936 25.2874 49.2092 27.1696 49.2092 29.4862C49.2092 31.8025 51.0897 33.6848 53.4039 33.6848C55.7183 33.6848 57.5988 31.8025 57.5988 29.4862C57.5988 27.1696 55.7183 25.2874 53.4039 25.2874Z" fill="#7C7C7C" style="fill:#7C7C7C;fill:color(display-p3 0.4877 0.4877 0.4877);fill-opacity:1;"/>
<path d="M53.4039 75.3409C49.6001 75.3409 46.5039 72.2416 46.5039 68.4342C46.5039 64.6269 49.6001 61.5278 53.4039 61.5278C57.2077 61.5278 60.3041 64.6269 60.3041 68.4342C60.3041 72.2416 57.2077 75.3409 53.4039 75.3409ZM53.4039 64.2395C51.0936 64.2395 49.2092 66.1218 49.2092 68.4381C49.2092 70.7547 51.0897 72.637 53.4039 72.637C55.7183 72.637 57.5988 70.7547 57.5988 68.4381C57.5988 66.1218 55.7183 64.2395 53.4039 64.2395Z" fill="#7C7C7C" style="fill:#7C7C7C;fill:color(display-p3 0.4877 0.4877 0.4877);fill-opacity:1;"/>
<path d="M53.4029 94.8219C49.5991 94.8219 46.5029 91.7226 46.5029 87.9152C46.5029 84.1078 49.5991 81.0088 53.4029 81.0088C57.207 81.0088 60.3032 84.1078 60.3032 87.9152C60.3032 91.7226 57.207 94.8219 53.4029 94.8219ZM53.4029 83.7205C51.0926 83.7205 49.2082 85.6027 49.2082 87.9191C49.2082 90.2357 51.0887 92.1179 53.4029 92.1179C55.7174 92.1179 57.5979 90.2357 57.5979 87.9191C57.5979 85.6027 55.7174 83.7205 53.4029 83.7205Z" fill="#7C7C7C" style="fill:#7C7C7C;fill:color(display-p3 0.4877 0.4877 0.4877);fill-opacity:1;"/>
<path d="M42.4144 47.325C42.137 47.325 41.8555 47.2741 41.5818 47.1644L37.0898 45.3723C35.9328 44.9107 35.3698 43.5959 35.831 42.4415C36.2925 41.2832 37.6019 40.7157 38.763 41.1815L43.255 42.9736C44.4123 43.4352 44.975 44.75 44.5138 45.9044C44.1619 46.7887 43.3137 47.325 42.4183 47.325H42.4144Z" fill="#C7C7C7" style="fill:#C7C7C7;fill:color(display-p3 0.7809 0.7809 0.7809);fill-opacity:1;"/>
<path d="M42.4144 66.4233C42.137 66.4233 41.8555 66.3726 41.5818 66.263L37.0898 64.4709C35.9328 64.009 35.3698 62.6942 35.831 61.5398C36.2925 60.3818 37.6019 59.8182 38.763 60.2799L43.255 62.0722C44.4123 62.5338 44.975 63.8486 44.5138 65.003C44.1619 65.8873 43.3137 66.4233 42.4183 66.4233H42.4144Z" fill="#C7C7C7" style="fill:#C7C7C7;fill:color(display-p3 0.7809 0.7809 0.7809);fill-opacity:1;"/>
<path d="M68.764 56.883C68.4866 56.883 68.2051 56.832 67.9314 56.7223L63.4396 54.9303C62.2824 54.4686 61.7194 53.1538 62.1806 51.9994C62.6421 50.8411 63.9517 50.2776 65.1087 50.7395L69.6008 52.5315C70.758 52.9932 71.3208 54.308 70.8595 55.4624C70.5076 56.3467 69.6594 56.883 68.764 56.883Z" fill="#C7C7C7" style="fill:#C7C7C7;fill:color(display-p3 0.7809 0.7809 0.7809);fill-opacity:1;"/>
<path d="M68.764 37.7747C68.4866 37.7747 68.2051 37.7238 67.9314 37.6143L63.4396 35.822C62.2824 35.3604 61.7194 34.0456 62.1806 32.8912C62.6421 31.7329 63.9517 31.1654 65.1087 31.6312L69.6008 33.4233C70.758 33.8852 71.3208 35.2 70.8595 36.3541C70.5076 37.2387 69.6594 37.7747 68.764 37.7747Z" fill="#C7C7C7" style="fill:#C7C7C7;fill:color(display-p3 0.7809 0.7809 0.7809);fill-opacity:1;"/>
<path d="M68.7633 75.9754C68.4857 75.9754 68.2041 75.9244 67.9304 75.8148L63.4386 74.0227C62.2814 73.561 61.7184 72.2463 62.1796 71.0919C62.6411 69.9336 63.9508 69.3661 65.108 69.8319L69.5998 71.624C70.757 72.0856 71.32 73.4004 70.8585 74.5548C70.5067 75.4391 69.6585 75.9754 68.7633 75.9754Z" fill="#C7C7C7" style="fill:#C7C7C7;fill:color(display-p3 0.7809 0.7809 0.7809);fill-opacity:1;"/>
<path d="M38.0446 76.6587C37.1494 76.6587 36.3009 76.1227 35.9493 75.2384C35.4878 74.0801 36.0508 72.7692 37.2081 72.3075L41.6998 70.5152C42.8571 70.0536 44.1667 70.6171 44.6319 71.7754C45.0933 72.9337 44.5303 74.2444 43.3731 74.7063L38.8813 76.4983C38.6076 76.608 38.3261 76.6587 38.0485 76.6587H38.0446Z" fill="#C7C7C7" style="fill:#C7C7C7;fill:color(display-p3 0.7809 0.7809 0.7809);fill-opacity:1;"/>
<path d="M38.0446 57.673C37.1494 57.673 36.3009 57.1367 35.9493 56.2524C35.4878 55.0944 36.0508 53.7835 37.2081 53.3216L41.6998 51.5295C42.8571 51.0676 44.1667 51.6312 44.6319 52.7895C45.0933 53.9478 44.5303 55.2586 43.3731 55.7203L38.8813 57.5126C38.6076 57.622 38.3261 57.673 38.0485 57.673H38.0446Z" fill="#C7C7C7" style="fill:#C7C7C7;fill:color(display-p3 0.7809 0.7809 0.7809);fill-opacity:1;"/>
<path d="M38.0446 37.7256C37.1494 37.7256 36.3009 37.1896 35.9493 36.305C35.4878 35.147 36.0508 33.8361 37.2081 33.3742L41.6998 31.5822C42.8571 31.1205 44.1667 31.6838 44.6319 32.8421C45.0933 34.0004 44.5303 35.3113 43.3731 35.7729L38.8813 37.5652C38.6076 37.6747 38.3261 37.7256 38.0485 37.7256H38.0446Z" fill="#C7C7C7" style="fill:#C7C7C7;fill:color(display-p3 0.7809 0.7809 0.7809);fill-opacity:1;"/>
<path d="M42.4144 86.8864C42.137 86.8864 41.8555 86.8354 41.5818 86.726L37.0898 84.9337C35.9328 84.472 35.3698 83.1572 35.831 82.0028C36.2925 80.8487 37.6019 80.2773 38.7591 80.7429L43.2511 82.5352C44.4084 82.9969 44.9712 84.3116 44.5099 85.466C44.158 86.3504 43.3098 86.8864 42.4144 86.8864Z" fill="#C7C7C7" style="fill:#C7C7C7;fill:color(display-p3 0.7809 0.7809 0.7809);fill-opacity:1;"/>
<path d="M64.2722 47.3272C63.3768 47.3272 62.5286 46.7912 62.1767 45.9068C61.7155 44.7485 62.2783 43.4338 63.4355 42.9719L67.9275 41.1798C69.0845 40.7181 70.3981 41.2814 70.8596 42.4397C71.3208 43.598 70.7578 44.9128 69.6005 45.3745L65.1087 47.1668C64.835 47.2762 64.5535 47.3272 64.2761 47.3272H64.2722Z" fill="#C7C7C7" style="fill:#C7C7C7;fill:color(display-p3 0.7809 0.7809 0.7809);fill-opacity:1;"/>
<path d="M64.2722 66.4272C63.3768 66.4272 62.5286 65.8912 62.1767 65.0069C61.7155 63.8486 62.2783 62.5338 63.4355 62.0722L67.9275 60.2799C69.0845 59.8182 70.3981 60.3818 70.8596 61.5398C71.3208 62.6981 70.7578 64.0129 69.6005 64.4748L65.1087 66.2669C64.835 66.3765 64.5535 66.4272 64.2761 66.4272H64.2722Z" fill="#C7C7C7" style="fill:#C7C7C7;fill:color(display-p3 0.7809 0.7809 0.7809);fill-opacity:1;"/>
<path d="M64.2722 86.8854C63.3768 86.8854 62.5286 86.3452 62.1767 85.4648C61.7155 84.3065 62.2783 82.9956 63.4355 82.534L67.9275 80.7419C69.0845 80.28 70.3942 80.8436 70.8557 82.0019C71.3169 83.1602 70.7539 84.471 69.5966 84.9327L65.1049 86.7248C64.8311 86.8344 64.5496 86.8854 64.2722 86.8854Z" fill="#C7C7C7" style="fill:#C7C7C7;fill:color(display-p3 0.7809 0.7809 0.7809);fill-opacity:1;"/>
<path d="M139.957 22.5757V79.483H131.493L130.899 74.4313C128.076 78.8178 123.549 80.301 119.096 80.301C108.33 80.301 100.237 73.1674 100.237 61.1308C100.237 48.4997 108.181 41.9608 118.873 41.9608C122.732 41.9608 128.749 44.0427 130.899 47.8306V27.5452L139.957 22.5796V22.5757ZM109.295 61.1269C109.295 67.517 113.897 71.9036 119.691 71.9036C125.484 71.9036 130.309 67.7401 130.309 61.1269C130.309 54.514 125.41 50.4248 119.691 50.4248C113.971 50.4248 109.295 54.514 109.295 61.1269Z" fill="#575757" style="fill:#575757;fill:color(display-p3 0.3426 0.3426 0.3426);fill-opacity:1;"/>
<path d="M156.363 64.3973C156.957 68.9286 160.89 72.2 167.274 72.2C170.617 72.2 174.995 70.9359 177.075 68.7799L182.865 74.5007C179.002 78.5116 172.692 80.4446 167.126 80.4446C154.506 80.4446 147.008 72.6421 147.008 60.9029C147.008 49.1639 154.58 41.7329 166.461 41.7329C178.342 41.7329 186.356 49.3126 184.945 64.3973H156.363ZM176.258 56.892C175.664 52.1376 171.954 49.7586 166.754 49.7586C161.856 49.7586 157.845 52.1376 156.508 56.892H176.254H176.258Z" fill="#575757" style="fill:#575757;fill:color(display-p3 0.3426 0.3426 0.3426);fill-opacity:1;"/>
<path d="M199.646 64.3973C200.24 68.9286 204.173 72.2 210.558 72.2C213.9 72.2 218.278 70.9359 220.358 68.7799L226.148 74.5007C222.286 78.5116 215.976 80.4446 210.409 80.4446C197.789 80.4446 190.291 72.6421 190.291 60.9029C190.291 49.1639 197.864 41.7329 209.744 41.7329C221.625 41.7329 229.639 49.3126 228.228 64.3973H199.646ZM219.541 56.892C218.947 52.1376 215.237 49.7586 210.038 49.7586C205.139 49.7586 201.128 52.1376 199.791 56.892H219.537H219.541Z" fill="#575757" style="fill:#575757;fill:color(display-p3 0.3426 0.3426 0.3426);fill-opacity:1;"/>
<path d="M235.208 94.7873V42.8456L244.266 47.8973C247.089 43.8121 251.988 42.0278 256.143 42.0278C267.43 42.0278 274.928 50.4253 274.928 61.1978C274.928 71.9703 268.173 80.3717 256.44 80.3717C252.582 80.3717 246.862 79.1822 244.266 75.1712V94.7873H235.208ZM265.869 61.1978C265.869 55.477 262.012 50.797 255.475 50.797C248.937 50.797 245.079 55.477 245.079 61.1978C245.079 66.9186 249.314 71.6025 255.475 71.6025C261.637 71.6025 265.869 66.9225 265.869 61.1978Z" fill="#575757" style="fill:#575757;fill:color(display-p3 0.3426 0.3426 0.3426);fill-opacity:1;"/>
<path d="M291.481 29.0126C291.481 36.0718 280.79 36.0718 280.79 29.0126C280.79 21.9535 291.481 21.9535 291.481 29.0126Z" fill="#7C7C7C" style="fill:#7C7C7C;fill:color(display-p3 0.4877 0.4877 0.4877);fill-opacity:1;"/>
<path d="M290.665 42.6943H281.605V79.4769H290.665V42.6943Z" fill="#7C7C7C" style="fill:#7C7C7C;fill:color(display-p3 0.4877 0.4877 0.4877);fill-opacity:1;"/>
<path d="M325.778 79.485V60.3151C325.778 54.7429 322.732 50.5051 316.943 50.5051C311.152 50.5051 307.587 55.1851 307.587 60.7611V79.4892H298.604V42.7768L307.29 47.7544C311.004 44.1113 314.715 42.2563 319.315 42.2563C327.929 42.2563 334.832 48.7208 334.832 60.2407V79.4892H325.773L325.778 79.485Z" fill="#7C7C7C" style="fill:#7C7C7C;fill:color(display-p3 0.4877 0.4877 0.4877);fill-opacity:1;"/>
<path d="M345.603 79.4826V51.3204H338.772V43.3691H345.603V40.9157C345.603 31.1055 352.21 26.5742 359.56 26.5742C362.755 26.5742 366.091 27.6153 369.064 29.5482L365.721 36.3101C363.79 35.046 362.007 34.3769 360.154 34.3769C357.034 34.3769 354.66 36.4588 354.66 40.9157V43.3691H365.429V51.3204H354.66V79.4826H345.603Z" fill="#7C7C7C" style="fill:#7C7C7C;fill:color(display-p3 0.4877 0.4877 0.4877);fill-opacity:1;"/>
<path d="M380.866 47.0857C383.688 42.5505 387.473 41.8853 391.186 41.8853C394.9 41.8853 398.611 43.3721 400.615 45.3797L396.529 53.2564C394.674 51.6952 392.964 50.8774 389.998 50.8774C385.247 50.8774 380.866 53.4051 380.866 60.167V79.4857H371.807V42.8517L380.866 47.0896V47.0857Z" fill="#7C7C7C" style="fill:#7C7C7C;fill:color(display-p3 0.4877 0.4877 0.4877);fill-opacity:1;"/>
<path d="M432.76 47.8926L441.744 42.8406V79.4745H433.206L432.76 74.1254C430.68 78.4337 424.962 80.5156 420.881 80.5899C410.042 80.6643 402.027 73.9767 402.027 61.1223C402.027 48.2682 410.417 41.8741 421.105 41.9524C426.005 41.9524 430.683 44.2573 432.76 47.8965V47.8926ZM411.082 61.1184C411.082 68.1033 415.906 72.2668 421.918 72.2668C436.172 72.2668 436.172 50.0485 421.918 50.0485C415.906 50.0485 411.082 54.1338 411.082 61.1223" fill="#7C7C7C" style="fill:#7C7C7C;fill:color(display-p3 0.4877 0.4877 0.4877);fill-opacity:1;"/>
</g>
<defs>
<clipPath id="clip0_14_67051">
<rect width="470" height="117" fill="white" style="fill:white;fill-opacity:1;"/>
</clipPath>
</defs>
</svg>
