<svg width="395" height="117" viewBox="0 0 395 117" fill="none" xmlns="http://www.w3.org/2000/svg">
<g clip-path="url(#clip0_14_67053)">
<mask id="mask0_14_67053" style="mask-type:luminance" maskUnits="userSpaceOnUse" x="107" y="30" width="261" height="50">
<path d="M368 30H107V80H368V30Z" fill="white" style="fill:white;fill-opacity:1;"/>
</mask>
<g mask="url(#mask0_14_67053)">
<path d="M127.287 37.7519C124.166 37.7519 123.386 39.3023 123.386 42.0155V47.0543H131.578L130.798 55.1938H123.386V79.6124H113.632V55.1938H107V47.0543H113.632V42.4031C113.632 34.2636 116.753 30 126.117 30C128.067 30 130.408 30 131.578 30.3876V37.7519" fill="#5F6368" style="fill:#5F6368;fill:color(display-p3 0.3725 0.3882 0.4078);fill-opacity:1;"/>
</g>
<mask id="mask1_14_67053" style="mask-type:luminance" maskUnits="userSpaceOnUse" x="107" y="30" width="261" height="50">
<path d="M368 30H107V80H368V30Z" fill="white" style="fill:white;fill-opacity:1;"/>
</mask>
<g mask="url(#mask1_14_67053)">
<path d="M132.358 62.1708C132.358 53.256 136.65 46.2793 145.623 46.2793C150.695 46.2793 153.426 48.6049 154.986 52.0933V47.0545H164.349V79.225H154.986V74.1863C153.426 77.287 150.695 79.6126 145.623 79.6126C136.65 79.6126 132.358 73.0235 132.358 63.7212M142.112 64.4964C142.112 69.1475 144.062 72.6359 148.354 72.6359C152.255 72.6359 154.596 69.5351 154.596 65.2715V61.7832C154.596 57.132 152.645 54.4188 148.354 54.4188C144.062 54.0312 142.112 57.5196 142.112 62.1708V64.4964Z" fill="#5F6368" style="fill:#5F6368;fill:color(display-p3 0.3725 0.3882 0.4078);fill-opacity:1;"/>
</g>
<mask id="mask2_14_67053" style="mask-type:luminance" maskUnits="userSpaceOnUse" x="107" y="30" width="261" height="50">
<path d="M368 30H107V80H368V30Z" fill="white" style="fill:white;fill-opacity:1;"/>
</mask>
<g mask="url(#mask2_14_67053)">
<path d="M185.027 46.6665C188.928 46.6665 192.439 47.4417 194.39 48.9921L192.049 55.9688C190.489 55.1936 188.148 54.4184 185.417 54.4184C179.955 54.4184 177.614 57.5192 177.614 62.558V64.496C177.614 69.5347 179.955 72.6355 185.417 72.6355C188.148 72.6355 190.489 71.8603 192.049 71.0851L194.39 78.0619C192.439 79.6122 188.928 80.3874 185.027 80.3874C173.323 80.3874 168.251 74.1859 168.251 64.496V62.558C168.251 52.4805 173.323 46.6665 185.027 46.6665Z" fill="#5F6368" style="fill:#5F6368;fill:color(display-p3 0.3725 0.3882 0.4078);fill-opacity:1;"/>
</g>
<mask id="mask3_14_67053" style="mask-type:luminance" maskUnits="userSpaceOnUse" x="107" y="30" width="261" height="50">
<path d="M368 30H107V80H368V30Z" fill="white" style="fill:white;fill-opacity:1;"/>
</mask>
<g mask="url(#mask3_14_67053)">
<path d="M195.561 64.496V61.7828C195.561 52.4805 200.632 46.6665 211.556 46.6665C221.7 46.6665 225.991 52.8681 225.991 61.7828V66.8215H205.314C205.704 71.0851 207.655 73.0231 213.117 73.0231C216.628 73.0231 220.529 72.2479 223.65 71.0851L225.601 77.6743C222.87 78.837 217.798 79.9998 213.117 79.9998C200.242 79.9998 195.561 74.1859 195.561 64.496ZM205.314 60.2324H217.018V59.4572C217.018 55.9688 215.457 53.2557 211.166 53.2557C207.265 53.2557 205.314 55.9688 205.314 60.2324Z" fill="#5F6368" style="fill:#5F6368;fill:color(display-p3 0.3725 0.3882 0.4078);fill-opacity:1;"/>
</g>
<mask id="mask4_14_67053" style="mask-type:luminance" maskUnits="userSpaceOnUse" x="107" y="30" width="261" height="50">
<path d="M368 30H107V80H368V30Z" fill="white" style="fill:white;fill-opacity:1;"/>
</mask>
<g mask="url(#mask4_14_67053)">
<path d="M262.663 64.4961C262.663 73.4109 258.372 80.3876 249.399 80.3876C244.327 80.3876 241.206 78.062 239.645 74.9612V80H230.282V30.7752L240.036 30V51.7054C241.596 48.9922 244.717 46.6667 249.009 46.6667C257.982 46.6667 262.273 53.2558 262.273 62.5581M252.91 62.1705C252.91 57.5194 250.959 54.4186 246.278 54.4186C242.376 54.4186 240.036 57.1318 240.036 61.7829V64.8837C240.036 69.5349 242.376 72.2481 246.278 72.2481C250.959 72.2481 252.91 68.7597 252.91 64.4961V62.1705Z" fill="#5F6368" style="fill:#5F6368;fill:color(display-p3 0.3725 0.3882 0.4078);fill-opacity:1;"/>
</g>
<mask id="mask5_14_67053" style="mask-type:luminance" maskUnits="userSpaceOnUse" x="107" y="30" width="261" height="50">
<path d="M368 30H107V80H368V30Z" fill="white" style="fill:white;fill-opacity:1;"/>
</mask>
<g mask="url(#mask5_14_67053)">
<path d="M265.785 64.1084V62.558C265.785 53.2556 271.247 46.6665 281.781 46.6665C292.704 46.6665 298.166 53.2556 298.166 62.558V64.1084C298.166 73.4107 292.704 79.9998 282.171 79.9998C271.247 79.9998 265.785 73.4107 265.785 64.1084ZM288.413 61.7828C288.413 57.5192 286.462 54.0308 282.171 54.0308C277.489 54.0308 275.929 57.5192 275.929 61.7828V64.8836C275.929 69.1471 277.879 72.6355 282.171 72.6355C286.852 72.6355 288.413 69.1471 288.413 64.8836V61.7828Z" fill="#5F6368" style="fill:#5F6368;fill:color(display-p3 0.3725 0.3882 0.4078);fill-opacity:1;"/>
</g>
<mask id="mask6_14_67053" style="mask-type:luminance" maskUnits="userSpaceOnUse" x="107" y="30" width="261" height="50">
<path d="M368 30H107V80H368V30Z" fill="white" style="fill:white;fill-opacity:1;"/>
</mask>
<g mask="url(#mask6_14_67053)">
<path d="M301.287 64.1084V62.558C301.287 53.2556 306.749 46.6665 317.283 46.6665C328.206 46.6665 333.278 53.2556 333.278 62.558V64.1084C333.278 73.4107 327.816 79.9998 317.283 79.9998C306.749 79.9998 301.287 73.4107 301.287 64.1084ZM323.915 61.7828C323.915 57.5192 321.964 54.0308 317.673 54.0308C312.991 54.0308 311.431 57.5192 311.431 61.7828V64.8836C311.431 69.1471 313.381 72.6355 317.673 72.6355C322.354 72.6355 323.915 69.1471 323.915 64.8836V61.7828Z" fill="#5F6368" style="fill:#5F6368;fill:color(display-p3 0.3725 0.3882 0.4078);fill-opacity:1;"/>
</g>
<mask id="mask7_14_67053" style="mask-type:luminance" maskUnits="userSpaceOnUse" x="107" y="30" width="261" height="50">
<path d="M368 30H107V80H368V30Z" fill="white" style="fill:white;fill-opacity:1;"/>
</mask>
<g mask="url(#mask7_14_67053)">
<path d="M347.323 62.5581L357.076 47.0543H367.61L357.076 62.9457L368 79.6124H357.466L347.323 63.7209V79.6124H337.569V30.7752L347.323 30" fill="#5F6368" style="fill:#5F6368;fill:color(display-p3 0.3725 0.3882 0.4078);fill-opacity:1;"/>
</g>
</g>
<g clip-path="url(#clip1_14_67053)">
<path d="M58 26C40.5392 26 27 38.7953 27 56.07C27 65.1065 30.7045 72.9185 36.734 78.3125C37.2377 78.762 37.5478 79.3975 37.5633 80.0795L37.7338 85.5975C37.7462 86.0035 37.8581 86.4002 38.0598 86.7529C38.2614 87.1055 38.5466 87.4031 38.8902 87.6197C39.2339 87.8363 39.6254 87.9652 40.0305 87.995C40.4356 88.0248 40.8419 87.9547 41.2135 87.7907L47.367 85.0782C47.8862 84.8457 48.4753 84.807 49.0255 84.9543C51.8543 85.7293 54.8613 86.1477 58 86.1477C75.4608 86.1477 89 73.3525 89 56.0778C89 38.803 75.4608 26 58 26Z" fill="#5F6368" style="fill:#5F6368;fill:color(display-p3 0.3725 0.3882 0.4078);fill-opacity:1;"/>
<path d="M39.3847 64.8662L48.4909 50.4202C48.8335 49.8763 49.2851 49.4093 49.8172 49.0488C50.3494 48.6882 50.9505 48.4419 51.5826 48.3254C52.2147 48.2089 52.8641 48.2247 53.4898 48.3718C54.1155 48.5189 54.704 48.7942 55.2179 49.1802L62.4642 54.6129C62.7877 54.8551 63.1812 54.9854 63.5854 54.984C63.9895 54.9826 64.3821 54.8496 64.7039 54.6052L74.4844 47.1807C75.7864 46.1887 77.4914 47.7542 76.6234 49.1414L67.5094 63.5797C67.1669 64.1235 66.7153 64.5905 66.1831 64.9511C65.651 65.3116 65.0499 65.5579 64.4178 65.6744C63.7857 65.7909 63.1362 65.7751 62.5105 65.628C61.8848 65.4809 61.2964 65.2057 60.7824 64.8197L53.5362 59.3869C53.2127 59.1447 52.8191 59.0145 52.415 59.0159C52.0109 59.0173 51.6182 59.1502 51.2964 59.3947L41.5159 66.8192C40.2139 67.8112 38.5089 66.2534 39.3847 64.8662Z" fill="white" style="fill:white;fill-opacity:1;"/>
</g>
<defs>
<clipPath id="clip0_14_67053">
<rect width="261" height="50" fill="white" style="fill:white;fill-opacity:1;" transform="translate(107 30)"/>
</clipPath>
<clipPath id="clip1_14_67053">
<rect width="62" height="62" fill="white" style="fill:white;fill-opacity:1;" transform="translate(27 26)"/>
</clipPath>
</defs>
</svg>
