<svg width="499" height="117" viewBox="0 0 499 117" fill="none" xmlns="http://www.w3.org/2000/svg">
<path d="M77.4254 41.3096H79.9447L87.1258 34.1285L87.4779 31.0785C74.1126 19.2804 53.715 20.5549 41.9168 33.9202C38.6387 37.6298 36.2632 42.0485 34.9639 46.8293C35.7623 46.502 36.65 46.4474 37.4832 46.6805L51.8453 44.3099C51.8453 44.3099 52.5743 43.0999 52.9562 43.1743C59.3438 36.1569 70.0956 35.3386 77.475 41.3096H77.4254Z" fill="#8F8F8F" style="fill:#8F8F8F;fill:color(display-p3 0.5625 0.5625 0.5625);fill-opacity:1;"/>
<path d="M97.3564 46.8294C95.7049 40.7493 92.3177 35.2841 87.6064 31.1084L77.5291 41.1857C81.7842 44.6622 84.2093 49.9041 84.1051 55.3991V57.1894C89.0595 57.1894 93.0765 61.2064 93.0765 66.1607C93.0765 71.1151 89.0595 75.1321 84.1051 75.1321H66.1624L64.3721 76.9472V87.7089L66.1624 89.4992H84.1051C96.9894 89.5984 107.518 79.2334 107.617 66.3492C107.677 58.5234 103.823 51.2035 97.3564 46.8294Z" fill="#7C7C7C" style="fill:#7C7C7C;fill:color(display-p3 0.4877 0.4877 0.4877);fill-opacity:1;"/>
<path d="M48.1948 89.3853H66.1375V75.0232H48.1948C46.9153 75.0232 45.6556 74.7455 44.4902 74.2148L41.9708 74.9984L34.7402 82.1795L34.1104 84.6988C38.1621 87.7637 43.1115 89.4101 48.1948 89.3853Z" fill="#C9C9C9" style="fill:#C9C9C9;fill:color(display-p3 0.7866 0.7866 0.7866);fill-opacity:1;"/>
<path d="M48.195 42.7976C35.3058 42.8719 24.926 53.3807 25.0004 66.2699C25.045 73.4659 28.4025 80.2403 34.1106 84.6243L44.5152 74.2197C40.0023 72.1814 37.9938 66.865 40.032 62.3521C42.0703 57.8391 47.3867 55.8306 51.8996 57.8689C53.8883 58.7665 55.4803 60.3634 56.3828 62.3521L66.7875 51.9475C62.3638 46.155 55.4803 42.7678 48.195 42.7976Z" fill="#9F9F9F" style="fill:#9F9F9F;fill:color(display-p3 0.6250 0.6250 0.6250);fill-opacity:1;"/>
<path d="M155.385 79.3571C149.142 79.4364 143.141 76.9717 138.757 72.5281C134.229 68.2731 131.7 62.312 131.779 56.098C131.705 49.884 134.234 43.9278 138.757 39.6678C143.121 35.1796 149.127 32.6653 155.385 32.7149C161.347 32.6355 167.094 34.9515 171.335 39.1421L166.851 43.7047C163.782 40.7341 159.655 39.1074 155.385 39.1669C150.907 39.1124 146.607 40.9423 143.543 44.2056C140.359 47.3646 138.603 51.6891 138.678 56.1724C138.638 60.606 140.393 64.866 143.543 67.9904C150.029 74.4573 160.489 74.5813 167.129 68.2681C169.108 66.1058 170.318 63.3485 170.581 60.4324H155.46V53.9853H176.854C177.063 55.2846 177.147 56.5989 177.107 57.918C177.375 63.4179 175.381 68.7888 171.587 72.786C167.367 77.175 161.475 79.5654 155.385 79.3571ZM205.127 75.0723C199.161 80.7903 189.748 80.7903 183.782 75.0723C180.891 72.2702 179.314 68.3871 179.423 64.3651C179.314 60.3431 180.896 56.46 183.782 53.658C189.753 47.9548 199.156 47.9548 205.127 53.658C208.014 56.46 209.596 60.3431 209.486 64.3651C209.591 68.3921 207.999 72.2752 205.102 75.0723H205.127ZM188.494 70.8668C191.573 74.1597 196.741 74.3284 200.034 71.2437C200.163 71.1197 200.292 70.9957 200.411 70.8668C202.092 69.1261 203 66.7853 202.93 64.3651C203.005 61.94 202.097 59.5844 200.411 57.8387C197.242 54.5358 191.995 54.4217 188.687 57.5907C188.603 57.6701 188.519 57.7544 188.439 57.8387C186.753 59.5844 185.845 61.94 185.92 64.3651C185.855 66.7853 186.773 69.131 188.464 70.8668H188.494ZM237.933 75.0723C231.967 80.7903 222.554 80.7903 216.588 75.0723C213.697 72.2702 212.12 68.3871 212.229 64.3651C212.12 60.3431 213.702 56.46 216.588 53.658C222.554 47.9399 231.967 47.9399 237.933 53.658C240.819 56.46 242.401 60.3431 242.292 64.3651C242.406 68.3871 240.824 72.2702 237.933 75.0723ZM221.304 70.8668C224.384 74.1597 229.552 74.3284 232.845 71.2437C232.974 71.1197 233.103 70.9957 233.222 70.8668C234.903 69.1261 235.81 66.7853 235.741 64.3651C235.815 61.94 234.908 59.5844 233.222 57.8387C230.053 54.5358 224.806 54.4217 221.503 57.5907C221.419 57.6701 221.334 57.7544 221.255 57.8387C219.569 59.5844 218.661 61.94 218.736 64.3651C218.671 66.7853 219.589 69.131 221.28 70.8668H221.304ZM259.501 92.8117C256.481 92.9059 253.52 91.9636 251.11 90.1386C248.971 88.5301 247.286 86.3941 246.22 83.9395L251.963 81.5441C252.588 83.0121 253.565 84.3015 254.809 85.2983C256.139 86.3695 257.81 86.9349 259.521 86.8853C261.713 87.0192 263.855 86.191 265.393 84.6189C266.91 82.7889 267.659 80.4382 267.485 78.0677V75.9005H267.257C265.308 78.2115 262.387 79.4712 259.372 79.3025C255.548 79.3125 251.893 77.7255 249.295 74.9185C246.478 72.1363 244.921 68.3226 244.985 64.3602C244.916 60.3778 246.473 56.5393 249.295 53.7274C251.888 50.9105 255.543 49.3087 259.372 49.3186C260.974 49.3136 262.561 49.6707 264.009 50.3501C265.264 50.8957 266.38 51.7139 267.287 52.7455H267.515V50.3501H273.764V77.1849C274.096 81.4747 272.648 85.7149 269.757 88.9037C267.004 91.5371 263.31 92.9456 259.501 92.8117ZM259.957 73.4605C262.134 73.5101 264.222 72.5827 265.651 70.9412C267.203 69.1608 268.026 66.8547 267.942 64.4891C268.036 62.0838 267.218 59.7381 265.651 57.9131C264.222 56.2666 262.134 55.3442 259.957 55.3937C257.721 55.3491 255.573 56.2666 254.061 57.9131C252.394 59.6736 251.487 62.0194 251.541 64.4395C251.492 66.8398 252.394 69.1608 254.061 70.8916C255.563 72.5529 257.711 73.4902 259.957 73.4605ZM284.878 34.406V78.4495H278.302V34.406H284.878ZM302.92 79.3571C298.937 79.4612 295.094 77.8991 292.312 75.0475C289.49 72.2207 287.948 68.3574 288.052 64.3651C287.903 60.363 289.386 56.4699 292.158 53.5786C294.776 50.8213 298.436 49.2938 302.235 49.3682C303.966 49.3484 305.677 49.6856 307.274 50.3501C308.712 50.9304 310.021 51.7883 311.127 52.8695C312.079 53.7869 312.923 54.8085 313.647 55.9194C314.232 56.8567 314.728 57.8436 315.134 58.8653L315.814 60.5812L295.659 68.8731C296.909 71.7396 299.79 73.5448 302.915 73.4109C305.935 73.4208 308.737 71.8388 310.299 69.255L315.338 72.6571C314.052 74.4988 312.405 76.0596 310.497 77.2444C308.236 78.6727 305.598 79.4067 302.92 79.3571ZM294.504 63.9089L307.909 58.3396C307.497 57.3576 306.758 56.5493 305.816 56.0484C304.765 55.4533 303.574 55.1507 302.364 55.1656C300.316 55.2202 298.367 56.0781 296.949 57.561C295.228 59.2074 294.33 61.5334 294.504 63.9089Z" fill="#5F6368" style="fill:#5F6368;fill:color(display-p3 0.3725 0.3882 0.4078);fill-opacity:1;"/>
<path d="M350.266 79.3573C338.801 79.5556 329.348 70.4206 329.15 58.9547C329.145 58.677 329.145 58.3943 329.155 58.1166C328.887 46.6507 337.967 37.1437 349.428 36.8759C349.706 36.8709 349.989 36.8709 350.266 36.8709C355.999 36.6924 361.504 39.1423 365.209 43.5214L361.579 47.0474C358.856 43.6205 354.66 41.7013 350.291 41.8798C346.101 41.7856 342.049 43.4073 339.078 46.363C335.989 49.4725 334.337 53.7276 334.516 58.1067C334.332 62.4857 335.989 66.7408 339.078 69.8503C342.049 72.811 346.101 74.4277 350.291 74.3335C355.171 74.388 359.808 72.2159 362.888 68.4369L366.518 72.0671C364.619 74.3385 362.233 76.1536 359.54 77.3835C356.634 78.7324 353.465 79.4069 350.266 79.3573Z" fill="#5F6368" style="fill:#5F6368;fill:color(display-p3 0.3725 0.3882 0.4078);fill-opacity:1;"/>
<path d="M376.268 78.4494H371.051V37.7534H376.268V78.4494Z" fill="#5F6368" style="fill:#5F6368;fill:color(display-p3 0.3725 0.3882 0.4078);fill-opacity:1;"/>
<path d="M384.789 53.9557C390.477 48.3071 399.662 48.3071 405.35 53.9557C408.048 56.8073 409.501 60.6161 409.382 64.5389C409.501 68.4617 408.048 72.2704 405.35 75.122C399.662 80.7707 390.477 80.7707 384.789 75.122C382.091 72.2704 380.638 68.4617 380.757 64.5389C380.638 60.6161 382.086 56.8073 384.789 53.9557ZM388.667 71.8489C392.004 75.3749 397.569 75.5287 401.1 72.1911C401.219 72.082 401.333 71.9629 401.442 71.8489C403.282 69.8751 404.254 67.2417 404.14 64.5438C404.259 61.846 403.287 59.2126 401.442 57.2388C398.104 53.7127 392.54 53.559 389.009 56.8966C388.89 57.0057 388.776 57.1247 388.667 57.2388C386.827 59.2126 385.855 61.846 385.969 64.5438C385.865 67.2367 386.847 69.8602 388.692 71.8241L388.667 71.8489Z" fill="#5F6368" style="fill:#5F6368;fill:color(display-p3 0.3725 0.3882 0.4078);fill-opacity:1;"/>
<path d="M438.279 78.45H433.24V74.5966H433.092C432.194 76.0596 430.924 77.2598 429.412 78.0731C427.845 78.9807 426.059 79.4617 424.244 79.4568C421.259 79.6601 418.348 78.4897 416.334 76.2828C414.425 73.8676 413.468 70.8375 413.636 67.7677V50.6333H418.853V66.8105C418.853 72.0029 421.145 74.5966 425.732 74.5966C427.8 74.6611 429.769 73.7238 431.024 72.0773C432.377 70.3664 433.096 68.2388 433.067 66.0567V50.6333H438.284V78.45H438.279Z" fill="#5F6368" style="fill:#5F6368;fill:color(display-p3 0.3725 0.3882 0.4078);fill-opacity:1;"/>
<path d="M455.995 79.357C452.414 79.3669 449.007 77.8146 446.671 75.097C444.058 72.2106 442.659 68.4316 442.763 64.5386C442.659 60.6455 444.058 56.8666 446.671 53.9802C449.007 51.2675 452.414 49.7103 455.995 49.7202C457.978 49.6905 459.937 50.1566 461.688 51.0791C463.23 51.8527 464.535 53.0281 465.467 54.4811H465.695L465.467 50.6278V37.7534H470.684V78.4494H465.645V74.5961H465.417C464.485 76.0491 463.181 77.2245 461.638 77.9981C459.903 78.9107 457.963 79.3818 455.995 79.357ZM456.853 74.5961C459.238 74.6308 461.524 73.6389 463.126 71.8734C464.897 69.855 465.804 67.2216 465.645 64.5386C465.804 61.8606 464.897 59.2222 463.126 57.2038C459.962 53.7224 454.576 53.4694 451.095 56.6384C450.896 56.817 450.708 57.0104 450.53 57.2038C448.754 59.2074 447.847 61.8358 448.01 64.5088C447.847 67.1819 448.754 69.8103 450.53 71.8139C452.136 73.6191 454.442 74.6308 456.853 74.5961Z" fill="#5F6368" style="fill:#5F6368;fill:color(display-p3 0.3725 0.3882 0.4078);fill-opacity:1;"/>
</svg>
