<?xml version="1.0" encoding="UTF-8"?>
<svg id="Layer_2" data-name="Layer 2" xmlns="http://www.w3.org/2000/svg" viewBox="0 0 237.3 80.06">
  <defs>
    <style>
      .lifepal-cls-1 { fill: #1d66dd; }
      .lifepal-cls-2 { fill: #e74b4b; }
    </style>
  </defs>
  <g id="Layer_1-2" data-name="Layer 1">
    <g>
      <g>
        <path class="lifepal-cls-1" d="M35.97,63.63h-9.3V18.57h9.3v45.06Z"/>
        <path class="lifepal-cls-1" d="M56.82,15.42v3.73h11.63v7.62h-11.63v37.44h-9.3V26.77h-5.57v-7.62h5.57v-3.47c0-4.74,1.4-8.51,4.19-11.31C54.51,1.57,57.88.17,61.84.17s7.57,1.5,10.84,4.49l-3.82,6.69c-1.83-1.98-3.74-2.96-5.73-2.96s-3.54.63-4.65,1.91c-1.11,1.27-1.66,2.98-1.66,5.12Z"/>
        <path class="lifepal-cls-1" d="M115.65,45.25h-34.63c.22,3.27,1.69,5.91,4.4,7.92,2.71,2,5.81,3.01,9.3,3.01,5.54,0,9.75-1.78,12.62-5.34l5.32,5.93c-4.76,5.03-10.96,7.54-18.6,7.54-6.2,0-11.48-2.1-15.82-6.31-4.35-4.21-6.52-9.85-6.52-16.94s2.21-12.72,6.64-16.9c4.43-4.18,9.65-6.27,15.66-6.27s11.12,1.85,15.32,5.55c4.21,3.7,6.31,8.79,6.31,15.29v6.52ZM81.02,37.8h25.33c0-3.78-1.16-6.69-3.49-8.72-2.33-2.03-5.19-3.05-8.6-3.05s-6.47,1.06-9.18,3.18c-2.71,2.12-4.07,4.98-4.07,8.6Z"/>
        <path class="lifepal-cls-1" d="M144.97,17.89c5.92,0,10.99,2.09,15.2,6.27,4.21,4.18,6.31,9.74,6.31,16.69s-2.09,12.59-6.27,16.94c-4.18,4.35-9.05,6.52-14.62,6.52s-10.56-2.48-14.99-7.45v23.21h-9.3V18.57h9.3v7.88c3.65-5.7,8.44-8.55,14.37-8.55ZM130.44,41.18c0,4.29,1.27,7.81,3.82,10.54,2.55,2.74,5.65,4.11,9.3,4.11s6.84-1.36,9.55-4.07c2.71-2.71,4.07-6.23,4.07-10.54s-1.33-7.9-3.99-10.76c-2.66-2.85-5.84-4.28-9.55-4.28s-6.84,1.43-9.38,4.28c-2.55,2.85-3.82,6.42-3.82,10.71Z"/>
        <path class="lifepal-cls-1" d="M209.59,63.63h-8.47v-6.01c-3.65,4.46-8.55,6.69-14.7,6.69-4.6,0-8.4-1.33-11.42-3.98-3.02-2.65-4.53-6.2-4.53-10.63s1.61-7.75,4.82-9.95c3.21-2.2,7.56-3.3,13.04-3.3h12.04v-1.69c0-5.98-3.27-8.98-9.8-8.98-4.1,0-8.36,1.52-12.79,4.57l-4.15-5.93c5.37-4.35,11.46-6.52,18.27-6.52,5.2,0,9.45,1.34,12.75,4.02,3.29,2.68,4.94,6.9,4.94,12.66v29.05ZM200.29,46.86v-3.81h-10.47c-6.7,0-10.05,2.15-10.05,6.44,0,2.2.83,3.88,2.49,5.04,1.66,1.16,3.97,1.74,6.94,1.74s5.55-.85,7.77-2.54c2.21-1.69,3.32-3.98,3.32-6.86Z"/>
        <g>
          <path class="lifepal-cls-1" d="M17.29,54.69c-.68.27-1.42.5-2.2.68-.75.18-1.41.27-1.95.27-1.3,0-2.26-.36-2.94-1.1-.7-.76-1.04-1.81-1.04-3.21V0H0v54.05c0,3.18.92,5.72,2.73,7.53,1.8,1.81,4.27,2.73,7.33,2.73,1.33,0,2.87-.18,4.58-.53,1.71-.35,3.22-.79,4.49-1.32l.7-.29-1.52-7.88-1.03.4Z"/>
          <path class="lifepal-cls-1" d="M235.78,54.29l-1.03.4c-.68.27-1.42.5-2.2.68-.75.18-1.41.27-1.95.27-1.3,0-2.26-.36-2.94-1.1-.7-.76-1.04-1.81-1.04-3.21V0h-9.16v54.05c0,3.18.92,5.72,2.73,7.53,1.8,1.81,4.27,2.73,7.33,2.73,1.33,0,2.87-.18,4.58-.53,1.71-.35,3.22-.79,4.49-1.32l.7-.29-1.52-7.88Z"/>
        </g>
      </g>
      <path class="lifepal-cls-2" d="M29.29,13.22c.54.49,1.25.79,2.03.79s1.49-.3,2.03-.79c0,0,0,0,0,0,0,0,.02-.01.02-.02.07-.07,5.74-5.85,5.78-5.9.49-.55.79-1.29.79-2.09s-.29-1.51-.76-2.06l-2.05-2.09s-.01-.01-.02-.01c-.54-.48-1.24-.78-2.02-.78s-1.5.3-2.04.79c0,0-.94.96-.96.98-.21.19-.48.31-.78.31s-.58-.12-.78-.31c-.02-.02-.96-.98-.96-.98-.54-.49-1.26-.79-2.04-.79s-1.48.29-2.02.78c0,0-.01,0-.02.01l-2.05,2.09c-.47.55-.76,1.27-.76,2.06s.3,1.54.79,2.09c.05.05,5.72,5.83,5.78,5.9,0,0,.02.01.02.02,0,0,0,0,0,0Z"/>
    </g>
  </g>
</svg>
