<?xml version="1.0" encoding="UTF-8"?><svg id="b" xmlns="http://www.w3.org/2000/svg" width="200" height="320" xmlns:xlink="http://www.w3.org/1999/xlink" viewBox="0 0 200 320"><defs><style>.aj{fill:url(#aa);}.ak{fill:url(#ah);}.al{fill:url(#f);}.am{fill:url(#ad);}.an{fill:url(#ai);}.ao{fill:url(#y);}.ap{fill:url(#d);}.aq{fill:url(#u);}.ar{fill:url(#ae);}.as{fill:#8a1002;}.at{fill:url(#z);}.au{fill:#7d1206;}.av{fill:url(#ag);}.aw{fill:url(#ac);}</style><linearGradient id="d" x1="-374.35" y1="2323.84" x2="-372.73" y2="2349.66" gradientTransform="translate(8152.01 32.84) scale(15 -.82)" gradientUnits="userSpaceOnUse"><stop offset="0" stop-color="#cd683d"/><stop offset=".07" stop-color="#cf6c42"/><stop offset=".16" stop-color="#d57950"/><stop offset=".26" stop-color="#e08e69"/><stop offset=".34" stop-color="#eaa584"/><stop offset=".52" stop-color="#e89e7e"/><stop offset=".78" stop-color="#e28d6c"/><stop offset="1" stop-color="#db7958"/></linearGradient><linearGradient id="f" x1="-932.13" y1="-6639.93" x2="-930.5" y2="-6614.07" gradientTransform="translate(8171.07 31.19) scale(15 -.81)" xlink:href="#d"/><linearGradient id="u" x1="-832.49" y1="184.4" x2="-826.83" y2="184.4" gradientTransform="translate(8801.45 353.76) scale(16.1 -1.7)" gradientUnits="userSpaceOnUse"><stop offset="0" stop-color="#c4550f"/><stop offset=".16" stop-color="#d57438"/><stop offset=".32" stop-color="#e4925f"/><stop offset=".4" stop-color="#e99d6f"/><stop offset=".64" stop-color="#d2723d"/><stop offset=".93" stop-color="#b6430a"/></linearGradient><radialGradient id="y" cx="318.37" cy="2.82" fx="318.37" fy="2.82" r="218.62" gradientTransform="" gradientUnits="userSpaceOnUse"><stop offset="0" stop-color="#cb5c2b"/><stop offset=".1" stop-color="#d36e3c"/><stop offset=".32" stop-color="#e99d6f"/><stop offset=".67" stop-color="#cd683d"/></radialGradient><linearGradient id="z" x1="62.97" y1="2152.62" x2="62.97" y2="1912.01" gradientUnits="userSpaceOnUse"><stop offset="0" stop-color="#f07e26"/><stop offset=".05" stop-color="#da6820"/><stop offset=".13" stop-color="#c1501a"/><stop offset=".23" stop-color="#af3e16"/><stop offset=".35" stop-color="#a23313"/><stop offset=".52" stop-color="#9c2e12"/><stop offset="1" stop-color="#9a2c11"/></linearGradient><linearGradient id="aa" x1="110.13" y1="2153.24" x2="110.13" y2="1912.43" xlink:href="#z"/><radialGradient id="ac" cx="1576.34" cy="-222.83" fx="1576.34" fy="-222.83" r="213.03" xlink:href="#y"/><linearGradient id="ad" x1="159.65" y1="2148.92" x2="159.65" y2="1883.83" xlink:href="#z"/><linearGradient id="ae" x1="100.61" y1="2383.84" x2="100.61" y2="2359.04" gradientUnits="userSpaceOnUse"><stop offset="0" stop-color="#e47344"/><stop offset=".06" stop-color="#db683c"/><stop offset=".27" stop-color="#c04c27"/><stop offset=".48" stop-color="#af3a1b"/><stop offset=".72" stop-color="#a53115"/><stop offset="1" stop-color="#a22e13"/></linearGradient><radialGradient id="ag" cx="1037.16" cy="-223.04" fx="1037.16" fy="-223.04" r="221.45" xlink:href="#y"/><linearGradient id="ah" x1="-1234.95" y1="1976.8" x2="-1254.56" y2="2005.91" gradientUnits="userSpaceOnUse"><stop offset="0" stop-color="#f49d74"/><stop offset=".12" stop-color="#e6875f"/><stop offset=".31" stop-color="#d56d47"/><stop offset=".52" stop-color="#c95b37"/><stop offset=".74" stop-color="#c2502e"/><stop offset="1" stop-color="#bf4d2c"/></linearGradient><linearGradient id="ai" x1="115.1" y1="2373.9" x2="115.1" y2="2349.7" xlink:href="#ae"/></defs><g id="c"><path id="e" class="ap" d="m.02,289.05l87.85,1.77v-4.81h0L.02,289.05Z"/><path id="g" class="al" d="m199.49,288.17l-87.85-2.17v4.79h0l87.85-2.62Z"/><path id="h" d="m.02,278.16v-3.05c1.17-.02,2.33-.17,3.46-.44.23,0,.43-.18.43-.41,0,0,0-.02,0-.02,0-.44.43-.44.43-.87,0-1.31.43-3.48.43-6.96v-19.59c0-3.05,0-4.79-.43-5.22q0-.44-.43-.44c-.23-.24-.54-.39-.87-.44-1.3,0-2.16-.44-3.03-.44v-2.61h13.41l2.16,5.66,1.76,4.35,8.65,18.72c1.26-2.98,2.7-5.89,4.3-8.7l3.46-7.84c1.36-2.66,2.52-5.41,3.46-8.25.57-1.26,1-2.57,1.3-3.92h12.54v2.61h-.43c-1.76,0-3.03,0-3.46.87-.61.72-.92,1.66-.87,2.61v25.69c.02,1.46.16,2.92.43,4.35q0,.44.43.44l.43.44c1.17.02,2.33.17,3.46.44v3.05h-16.87v-3.05c2.16,0,3.46,0,3.89-.44.43,0,.43-.44.87-1.31v-27.89l-6.06,13.49-3.01,6.53c-.87,1.77-1.76,4.35-3.46,7.4-.87,2.17-1.76,3.48-2.16,4.79h-1.32c-.87-1.77-1.76-3.92-3.03-6.53-2.16-4.79-3.46-8.25-4.76-10.45l-6.94-15.24v27.42c0,.44,0,.87.43.87.23.24.54.39.87.44,1.14.27,2.3.41,3.46.44v3.06h-6.04c-2.29.32-4.61.45-6.92.41Z"/><path id="i" d="m78.76,262.06h-11.25l5.62-14.37,5.62,14.37m-10.38,16.13v-3.48c-1.31-.04-2.61-.18-3.89-.44-.43,0-.43-.44-.43-.87.29-1.63.72-3.24,1.3-4.79l1.3-3.48h13.84l2.16,6.09c.31.68.46,1.43.43,2.17q0,.44-.43.87c-1.14.27-2.3.41-3.46.44v3.49h16.87v-3.48h-3.03c-.23,0-.43-.18-.43-.41,0,0,0-.02,0-.02-.24-.23-.39-.54-.43-.87l-.87-2.61-1.76-3.92-11.65-28.75h-3.89l-2.16,6.09-6.95,17.85c-1.3,3.48-2.16,5.66-2.59,6.96-.87,2.61-1.76,3.92-1.76,4.35s-.43.44-.43.87c-.23.24-.54.39-.87.44-.88,0-1.76.14-2.59.44v3.48h6.06l5.67-.42Z"/><path id="j" d="m94.33,286l.43-.44c.87.87,1.76,1.31,2.16,1.77.51.35,1.14.51,1.76.44.87,0,1.3,0,1.76-.44s.43-.87.87-1.31c0-.87.43-2.17.43-3.92v-37.02c0-2.17,0-3.05-.43-3.48,0-.23-.18-.43-.41-.44,0,0-.02,0-.02,0-.23-.24-.54-.39-.87-.44h-3.46v-2.61h18.16v2.61h-3.46c-.33.05-.63.2-.87.44-.33.35-.49.83-.43,1.31v30.05c-.02,2.49-.31,4.97-.87,7.4-.51,1.9-1.39,3.67-2.59,5.22-.78,1.22-1.81,2.26-3.03,3.05-1.05.88-2.22,1.61-3.46,2.17-.96.44-1.98.73-3.03.87-.75.07-1.5-.08-2.16-.44-.9-.88-.47-2.6-.47-4.8Z"/><path id="k" d="m128.08,248.57c.67-2.25,2.03-4.24,3.89-5.66,1.91-1.29,4.19-1.92,6.49-1.77,1.95-.03,3.88.42,5.62,1.31,1.46.81,2.66,2.02,3.46,3.48.98,1.62,1.71,3.38,2.16,5.22.53,2.29.82,4.62.87,6.96.09,3.24-.35,6.48-1.3,9.58-.82,2.29-2.33,4.27-4.33,5.66-1.86,1.04-3.93,1.65-6.06,1.77-2.29.09-4.56-.53-6.49-1.77-1.97-1.59-3.47-3.7-4.33-6.09-1.32-3.32-1.92-6.88-1.76-10.45.33-2.8.92-5.56,1.76-8.25m-7.36,20.46c1.51,2.9,3.95,5.21,6.92,6.53,3.28,1.43,6.81,2.17,10.38,2.17,3.41.13,6.8-.48,9.96-1.77,4.22-1.92,7.6-5.31,9.52-9.55,1.25-3.03,1.84-6.3,1.76-9.58.09-1.9-.06-3.8-.43-5.66-.39-1.66-.98-3.27-1.76-4.79-.9-1.51-2.07-2.84-3.46-3.92-1.51-1.36-3.27-2.39-5.19-3.05-2.8-.89-5.72-1.33-8.65-1.31-3.08-.02-6.14.42-9.08,1.31-2.26.89-4.32,2.22-6.06,3.92-1.78,1.93-3.24,4.13-4.33,6.53-.92,2.81-1.36,5.75-1.3,8.7-.39,3.58.21,7.2,1.73,10.46h0Z"/><path id="l" d="m162.69,240.29v-2.17h19.91c2.17-.12,4.35.03,6.49.44,1.41.46,2.62,1.38,3.46,2.61.88,1.44,1.33,3.1,1.3,4.79-.06,2.21-.82,4.34-2.16,6.09-1.55,2.02-3.66,3.53-6.06,4.35.43.97,1.02,1.85,1.76,2.61.43.87.87,1.31.87,1.77,0,.23.18.43.41.44,0,0,.02,0,.02,0l4.33,6.53c.65.82,1.24,1.69,1.76,2.61,1.3,1.77,2.16,3.05,2.59,3.48l.87.87c.61-.02,1.22.13,1.76.44v3.48h-10.48c-.09-.92-.39-1.82-.87-2.61l-5.62-10.02c-1.18-2.34-2.63-4.53-4.33-6.53-.43-.87-1.3-1.31-1.76-1.77l.43-.87c2.16,0,3.89,0,4.76-.87,1.37-.44,2.37-1.62,2.59-3.05.88-1.44,1.33-3.1,1.3-4.79.03-1.55-.42-3.08-1.3-4.35-.87-1.31-1.76-2.17-3.03-2.17-1.25-.41-2.58-.56-3.89-.44-.89-.07-1.78.08-2.59.44v30.05c-.11.75.04,1.52.43,2.17,0,.23.18.43.41.44,0,0,.02,0,.02,0,.33.03.64.19.87.44h3.03v3.49h-17.28v-3.48c2.16,0,3.46,0,3.46-.44.23,0,.43-.18.43-.41,0,0,0-.02,0-.02.03-.33.19-.65.43-.87-.02-1.18.12-2.35.43-3.48v-24.83c.18-1.47.04-2.95-.43-4.35l-.43-.44c-.43.87-1.73.44-3.89.44Z"/><path id="m" d="m3.48,301.24c-2.23,1.8-3.51,4.53-3.46,7.4-.07,1.18.08,2.36.43,3.48.43.87.87,2.17,1.3,3.05.59.97,1.32,1.85,2.16,2.61,1.01.84,2.19,1.45,3.46,1.77,1.27.36,2.58.51,3.89.44,1.17.07,2.34-.08,3.46-.44,1.13-.51,2.28-.94,3.46-1.31h0l.87-1.77-.43-.87h-.45c-.87.44-1.3.87-2.16,1.31-1.11.39-2.29.53-3.46.44-4.9.11-8.96-3.79-9.07-8.72,0-.14,0-.28,0-.42-.02-1.36.28-2.7.87-3.92.43-.97,1.02-1.85,1.76-2.61.87-.87,1.3-1.31,2.16-1.31.96-.39,2-.54,3.03-.44,1.31-.13,2.64.02,3.89.44.87.44,1.3.87,1.3,1.77v2.17h1.76l.43-3.05.43-1.77h-.49l-1.76-.44-2.59-.44h-2.14c-3.14-.84-6.49.17-8.65,2.62Z"/><path id="n" d="m37.66,298.19h-9.08v1.77h2.16l.43.44v17.41h-2.16v1.77h9.08v-1.77h-2.16l-.43-.44h0v-17.41h2.59l-.43-1.77Z"/><path id="o" d="m47.17,298.62v1.33h1.76l.43.44.43.44v16.98h-2.16v1.77h6.92v-1.77h-2.16v-14.83c1.3,1.77,9.08,11.32,9.08,11.32l1.76,2.17,1.76,2.17.43.44h.87l2.16.44v-20.46h2.16v-.87h-7.44v1.77h2.15v14.37c-.25-.23-.4-.54-.43-.87l-3.46-3.92-4.33-5.22-3.03-3.48-1.76-2.17h-5.15v-.03Z"/><path id="p" d="m87.41,297.78h-8.65v1.77h2.59v17.41h-2.16v1.77h12.11l3.46-.44v-.44c-.05-1.61.09-3.22.43-4.79v-.44h-1.76l-.43,2.17c-.03.33-.19.65-.43.87-.45.08-.89.22-1.3.44h-6.89v-7.84h5.62v2.61h1.76v-7.84h-1.76v2.17h-6.06v-7.04h5.62c.48-.06.95.1,1.3.44v2.61h1.76l.43-3.48.43-1.77h-3.03l-3.06,1.8Z"/><path id="q" d="m114.23,297.75h-9.08v1.77h2.59v17.38h-2.59v1.77h9.08v-1.77h-2.59v-16.98c.82-.35,1.71-.5,2.59-.44.75-.11,1.51.04,2.16.44l1.3,1.31c.39.65.55,1.42.43,2.17.07.75-.08,1.51-.43,2.17-.43.87-.87,1.31-1.3,1.31-.51.35-1.14.51-1.76.44l-2.59-.44v.44l.43,1.31,2.16.44c.75.07,1.5-.08,2.16-.44l2.59-1.31c.71-.61,1.31-1.35,1.76-2.17.35-.82.5-1.72.43-2.61-.09-.92-.39-1.82-.87-2.61-.51-.81-1.27-1.43-2.16-1.77-1.11-.38-2.28-.52-3.45-.41h-.87Z"/><path id="r" d="m138.44,298.19h-8.2v1.77h2.59v16.98h0c-.23.24-.54.39-.87.44h-.43v1.31h14.71v-.45l.87-5.66h-1.76l-.43,2.61c-.03.33-.19.65-.43.87-1.69.45-3.45.6-5.19.44h-2.59v-17.86h2.59l-.86-.44Z"/><path id="s" d="m185.19,297.75l-4.33.87v1.77h1.76l.43.44c.43.44.87,1.31,1.76,2.17l1.3,1.77c.81,1.4,1.53,2.86,2.16,4.35-.43.44-3.89,5.22-3.89,5.22l-2.16,3.05-.46.39h-1.76v1.77h4.33v-1.31c.91-1.79,1.92-3.54,3.03-5.22,0,0,.87-1.31,1.3-2.17.43.87,3.46,6.09,3.46,6.09l1.76,3.05h5.19v-1.77h-1.76l-.87-2.61s-3.89-6.53-4.76-7.84c.34-.4.63-.84.87-1.31l2.59-3.48,1.76-2.61.87-.87h1.76v-1.31h-4.76v1.77c-1.07,2.17-2.37,4.22-3.89,6.09-.43-.87-2.16-3.48-2.16-3.48-.87-1.31-1.3-2.61-1.76-3.05l-1.76-1.77h0Z"/><path id="t" d="m163.55,298.19h-8.65v1.77h2.59v17.41h-2.16v1.77h12.11l3.46-.44v-.44c-.05-1.61.09-3.22.43-4.79v-.44h-1.76l-.43,2.17c-.03.33-.19.65-.43.87-.45.08-.89.22-1.3.44h-6.89v-7.45h5.62v2.61h1.76v-7.84h-1.76v2.16h-5.62v-6.94h2.58l3.03.44c.48-.06.95.1,1.3.44v3.05h1.76l.43-3.48.43-1.77h-3.03l-3.47.46Z"/><path id="v" class="aq" d="m136.3,45.28h-70.95l-11.68-10.02h94.29l-11.65,10.02Z"/><path id="w" class="au" d="m72.27,0l28.56,4.79,28.12-4.79h-56.68Z"/><path id="x" class="as" d="m72.27,218.52l-18.61-6.97-19.03,6.97h37.64Z"/><path class="ao" d="m41.56,205.9c0,5.21-6.9,12.6-6.92,12.62l19.02-6.96h.01s0-176.29,0-176.29h0l-23.8-18.72c6.9,7.53,11.02,17.21,11.68,27.42v161.93Z"/><path class="at" d="m72.25,218.52h.02s-6.92-7.4-6.92-12.62V44.84l-11.68-9.58v176.3l18.58,6.96Z"/><path class="aj" d="m119.43,218.52s-6.49-6.97-6.49-12.19V45.27l-11.68-10.01-.41,176.31,18.58,6.96Z"/><path id="ab" class="as" d="m167.02,218.52l-19.03-6.97-18.61,6.97h37.64Z"/><path class="aw" d="m147.96,35.28l-12.11,10.02v161.06c0,5.22-6.46,12.17-6.46,12.17l18.58-6.95V35.28Z"/><path class="am" d="m147.96,211.57h.03s18.38,6.71,18.38,6.71c-1.05-1.16-6.7-7.64-6.7-12.38V43.97c.66-10.22,4.79-19.89,11.68-27.42l-23.36,18.72h-.03,0v176.3Z"/><polygon class="ar" points="171.34 16.55 29.87 16.55 53.67 35.27 147.95 35.27 147.98 35.27 171.34 16.55"/><path id="af" class="as" d="m119.43,218.52l-18.61-6.97-19.03,6.97h37.64Z"/><path class="av" d="m101.25,211.72h0l-.41-.15.41-176.31h-.43l-11.68,9.58v161.07c0,5.22-7.36,12.62-7.36,12.62l19.03-6.97.43.16Z"/><polygon class="ak" points="100.83 30.47 100.83 4.79 72.27 0 100.83 30.47"/><polygon class="an" points="128.95 0 100.83 4.79 100.83 30.47 129.38 0 128.95 0"/></g></svg>