<?xml version="1.0" encoding="UTF-8"?><svg id="b" xmlns="http://www.w3.org/2000/svg" width="290" height="90.82" viewBox="0 0 290 90.82"><defs><style>.v{fill:#004689;}.w{fill:#6d6e71;}</style></defs><g id="c"><path id="d" class="v" d="m19.81,21.88c3.72,7.02,7.64,14.45,11.56,21.88.62-1.03,1.24-2.48,2.27-4.33s2.06-4.13,3.51-6.4c1.24-2.48,2.68-5.16,4.13-7.84,1.44-2.89,3.1-5.78,4.54-8.67,1.44-2.89,3.1-5.78,4.54-8.46,1.44-2.89,2.89-5.37,4.33-7.84h1.03c.62,5.16,1.03,9.91,1.65,14.65.41,4.75,1.03,9.29,1.44,14.04.62,4.54,1.03,9.08,1.65,13.62s1.03,8.88,1.65,13.21c-.6-.17-1.23-.24-1.86-.21h-3.72c-.63-.03-1.25.04-1.86.21-.62-7.02-1.24-13.83-1.65-20.43-.62-6.6-1.24-13.42-2.06-20.23h-.21c-3.72,6.6-7.22,13.21-10.73,19.81-3.51,6.6-6.81,13.42-9.91,20.64h-.62c-3.1-6.6-6.4-13.42-9.91-20.02s-6.81-13.42-10.32-20.43h0c-.41,3.3-.83,6.81-1.24,10.73s-.83,7.64-1.24,11.35c-.41,3.72-.62,7.22-1.03,10.53-.21,3.3-.41,5.99-.41,8.05-.88-.17-1.78-.24-2.68-.21-.9-.04-1.8.03-2.68.21.62-4.33,1.44-8.88,2.06-13.62.83-4.75,1.44-9.49,2.06-14.45.83-4.95,1.44-9.7,2.06-14.24C6.6,8.67,7.22,4.13,7.64,0h1.24l10.94,21.88"/><path id="e" class="v" d="m80.5,11.35c-.21-3.3-.21-6.81-.41-10.32.67.18,1.37.25,2.06.21.62,0,1.24.21,1.86.21.63.03,1.25-.04,1.86-.21.62,0,1.24-.21,2.06-.21-.21,3.51-.21,6.81-.41,10.32-.21,3.3-.21,6.81-.21,10.32v13.62c0,3.51,0,7.02.21,10.32s.21,6.81.41,9.91c-1.3-.18-2.61-.25-3.92-.21-1.31-.04-2.62.03-3.92.21.21-3.3.21-6.6.41-9.91s.21-6.81.21-10.32v-13.62c0-3.51,0-7.02-.21-10.32"/><path id="f" class="v" d="m134.58,34.88c-6.81-7.43-13.62-14.65-20.43-22.09,0,1.44-.21,3.51-.21,5.99v19.4c-.03,1.86.03,3.72.21,5.57,0,1.86.21,3.51.21,5.16s.21,2.89.21,4.13.21,2.06.21,2.48c-.88-.18-1.78-.25-2.68-.21-.97-.04-1.94.03-2.89.21,0-.62.21-1.44.41-2.89s.21-3.1.41-5.16.21-4.13.41-6.4.21-4.75.41-7.02c0-2.27.21-4.54.21-6.81V8.26c0-3.72,0-6.4-.21-8.26h1.24c3.1,3.51,6.6,7.22,10.32,11.15,3.72,3.92,7.22,7.84,10.73,11.77,3.51,3.92,7.02,7.64,10.11,10.94,3.3,3.51,5.99,6.4,8.46,8.88v-10.73c0-5.57,0-10.94-.21-16.31,0-5.16-.21-10.11-.41-14.86.88.22,1.78.36,2.68.41.84-.07,1.66-.21,2.48-.41-.21,1.24-.21,2.89-.41,5.16-.21,2.27-.21,4.75-.41,7.43s-.21,5.16-.41,7.84c-.21,2.48-.21,4.54-.21,6.19v29.1h-1.03c-5.99-7.02-12.38-14.24-19.2-21.67"/><path id="g" class="v" d="m222.92,16.93c-.96-2.9-2.51-5.57-4.54-7.84-1.85-2.06-4.2-3.62-6.81-4.54-2.78-1.01-5.71-1.5-8.67-1.44-2.89-.06-5.76.43-8.46,1.44-2.6.94-4.94,2.5-6.81,4.54-2.1,2.23-3.66,4.91-4.54,7.84-1.13,3.68-1.68,7.51-1.65,11.35-.05,3.85.51,7.68,1.65,11.35.92,2.92,2.47,5.6,4.54,7.84,1.89,2.02,4.22,3.57,6.81,4.54,2.71,1,5.58,1.49,8.46,1.44,2.95.06,5.89-.43,8.67-1.44,2.6-.94,4.94-2.5,6.81-4.54,2.1-2.23,3.66-4.91,4.54-7.84,1.14-3.67,1.7-7.5,1.65-11.35.03-3.85-.52-7.67-1.65-11.35m-47.27-.62c1.38-3.33,3.42-6.35,5.99-8.88,2.68-2.48,5.84-4.37,9.29-5.57C194.72.59,198.69-.04,202.69,0c4.07-.04,8.11.59,11.97,1.86,3.49,1.1,6.67,3.01,9.29,5.57,2.63,2.47,4.68,5.51,5.99,8.88,1.47,3.82,2.17,7.88,2.06,11.97.11,4.09-.59,8.16-2.06,11.97-1.38,3.33-3.42,6.35-5.99,8.88-2.64,2.49-5.82,4.32-9.29,5.37-3.86,1.27-7.91,1.89-11.97,1.86-4,.05-7.98-.57-11.77-1.86-3.44-1.11-6.61-2.94-9.29-5.37-2.63-2.47-4.68-5.51-5.99-8.88-1.47-3.82-2.17-7.88-2.06-11.97-.19-4.09.51-8.18,2.06-11.97"/><path id="h" class="v" d="m259.04,26.42h2.89c1.74-.01,3.47-.22,5.16-.62,1.66-.4,3.26-1.03,4.75-1.86,1.48-.97,2.75-2.23,3.72-3.72,1.06-1.81,1.56-3.89,1.44-5.99.06-1.8-.37-3.58-1.24-5.16-.68-1.32-1.67-2.46-2.89-3.3-1.21-.76-2.53-1.32-3.92-1.65-1.37-.23-2.74-.37-4.13-.41-1.52-.05-3.03.02-4.54.21-1.24,0-2.27.21-3.1.21-.21,2.89-.21,5.78-.41,8.67-.21,2.89-.21,5.78-.21,8.46v4.54c.77.4,1.61.61,2.48.62m-8.88-15.07c-.21-3.3-.21-6.81-.41-10.32,1.51.17,3.02.24,4.54.21,1.44,0,2.89.21,4.54.21,1.52.03,3.03-.03,4.54-.21,1.51-.18,3.02-.25,4.54-.21,2.08-.02,4.16.19,6.19.62,1.85.31,3.61,1.01,5.16,2.06,1.48,1,2.68,2.34,3.51,3.92.89,1.87,1.31,3.92,1.24,5.99.02,2.31-.55,4.58-1.65,6.6-1.04,1.79-2.44,3.34-4.13,4.54-1.56,1.17-3.3,2.08-5.16,2.68-1.67.58-3.4,1-5.16,1.24.62.83,1.44,1.86,2.68,3.3,1.03,1.44,2.27,3.1,3.72,4.75s2.68,3.51,4.33,5.37c1.44,1.86,2.89,3.72,4.33,5.37s2.68,3.3,3.92,4.75,2.27,2.48,2.89,3.3c-.75-.16-1.51-.23-2.27-.21h-4.54c-.76-.03-1.53.04-2.27.21-1.26-1.59-2.43-3.24-3.51-4.95-1.65-2.27-3.3-4.54-5.37-7.22-2.06-2.68-3.92-5.16-5.99-7.64-2.06-2.48-3.92-4.54-5.57-6.4h-2.89v5.78c0,3.51,0,7.02.21,10.32.21,3.3.21,6.81.41,9.91-2.61-.28-5.24-.28-7.84,0,.21-3.3.21-6.6.41-9.91s.21-6.81.21-10.32v-13.62c-.41-3.36-.62-6.73-.62-10.11"/><path id="i" class="w" d="m1.86,73.48c0-1.24-.21-2.68-.21-3.92.29,0,.57.06.83.21h1.44c.29,0,.57-.06.83-.21,0,1.24-.21,2.68-.21,3.92v13c0,1.24.21,2.48.21,3.92H1.86c0-1.24.21-2.48.21-3.92v-9.08c-.17-1.3-.24-2.61-.21-3.92"/><path id="j" class="w" d="m24.98,82.56c-2.68-2.89-5.16-5.57-7.84-8.46v16.51h-2.06c-.01-.36.06-.71.21-1.03-.03-.63.04-1.25.21-1.86-.03-.83.04-1.66.21-2.48-.03-.9.04-1.8.21-2.68v-13h.41c1.24,1.24,2.48,2.68,3.92,4.33,1.44,1.44,2.68,3.1,4.13,4.54s2.68,2.89,3.92,4.13,2.27,2.48,3.3,3.3v-10.32c.04-1.93-.03-3.86-.21-5.78.66.28,1.4.28,2.06,0,0,.69-.06,1.39-.21,2.06.03.97-.04,1.94-.21,2.89.04.97-.03,1.94-.21,2.89v13.21h-.41c-2.27-2.68-4.75-5.37-7.43-8.26"/><path id="k" class="w" d="m48.09,71.21h-3.3c-.56-.03-1.12.04-1.65.21-.49-.05-.99.02-1.44.21,0-.41.21-.62.21-1.03.01-.36-.06-.71-.21-1.03,1.31-.03,2.62.03,3.92.21h7.84c1.31.03,2.62-.04,3.92-.21-.05.35-.12.69-.21,1.03-.01.36.06.71.21,1.03-.41,0-.83-.21-1.44-.21-.56.03-1.12-.04-1.65-.21h-3.3v15.27c0,1.24.21,2.48.21,3.92h-2.89c0-1.24.21-2.48.21-3.92v-9.08c-.34-2.05-.48-4.12-.41-6.19"/><path id="l" class="w" d="m65.64,73.48c0-1.24-.21-2.68-.21-3.92.9-.03,1.8.04,2.68.21h5.37c.9.03,1.8-.04,2.68-.21v1.65c-.63.03-1.25-.04-1.86-.21-.56.03-1.12-.04-1.65-.21-.63.03-1.25-.04-1.86-.21h-2.48v7.84h5.99c.49.03.98-.04,1.44-.21v1.86c-.62,0-1.03-.21-1.86-.21h-5.37v9.29h4.33c.69.04,1.39-.03,2.06-.21.62,0,1.24-.21,1.65-.21v1.65h-10.73c0-1.24.21-2.68.21-3.92v-9.08c-.21-1.44-.21-2.68-.41-3.92"/><path id="m" class="w" d="m89.37,79.26h1.03c.63.03,1.25-.04,1.86-.21.65-.19,1.28-.47,1.86-.83.58-.37,1.07-.87,1.44-1.44.75-1.26.82-2.8.21-4.13-.28-.46-.63-.88-1.03-1.24-.41-.21-1.03-.41-1.44-.62-.53-.17-1.09-.24-1.65-.21h-1.65c-.42-.03-.85.04-1.24.21.03,1.1-.03,2.21-.21,3.3v4.95c.21.21.41.21.83.21m-3.51-5.78c0-1.24-.21-2.68-.21-3.92.56-.05,1.12.02,1.65.21h4.95c.83-.03,1.66.04,2.48.21.73.15,1.43.43,2.06.83.58.37,1.07.87,1.44,1.44.35.7.5,1.49.41,2.27.04.87-.17,1.73-.62,2.48-.44.65-1,1.21-1.65,1.65-.62.47-1.32.81-2.06,1.03-.61.19-1.23.33-1.86.41.21.21.62.83,1.03,1.24.42.67.9,1.29,1.44,1.86.62.62,1.03,1.44,1.65,2.06s1.03,1.44,1.65,2.06c.54.57,1.03,1.19,1.44,1.86.3.45.65.86,1.03,1.24h-3.3c-.21-.41-.83-1.03-1.44-1.86-.62-.94-1.31-1.84-2.06-2.68-.83-1.03-1.44-1.86-2.27-2.89s-1.44-1.86-2.06-2.48h-1.24v5.99c0,1.24.21,2.48.21,3.92h-2.89c0-1.24.21-2.48.21-3.92v-13"/><path id="n" class="w" d="m119.1,82.56c-2.68-2.89-5.16-5.57-7.84-8.46v16.51h-2.06c-.01-.36.06-.71.21-1.03-.03-.63.04-1.25.21-1.86-.03-.83.04-1.66.21-2.48-.03-.9.04-1.8.21-2.68v-13h.41c1.24,1.24,2.48,2.68,3.92,4.33,1.44,1.44,2.68,3.1,4.13,4.54s2.68,2.89,3.92,4.13c1.24,1.24,2.27,2.48,3.3,3.3v-10.32c.04-1.93-.03-3.86-.21-5.78.66.28,1.4.28,2.06,0,0,.69-.06,1.39-.21,2.06.03.97-.04,1.94-.21,2.89.04.97-.03,1.94-.21,2.89v13.21h-.41c-2.48-2.68-4.95-5.37-7.43-8.26"/><path id="o" class="w" d="m140.77,80.91h6.6l-3.3-7.64-3.3,7.64Zm13.21,9.49h-3.3c-.24-.54-.45-1.09-.62-1.65-.19-.72-.46-1.41-.83-2.06-.21-.62-.62-1.44-.83-2.27-.24-.7-.51-1.39-.83-2.06h-7.64c-.62,1.65-1.24,3.1-1.65,4.54-.31,1.2-.73,2.38-1.24,3.51h-2.06c1.65-3.51,3.3-7.02,4.75-10.53,1.44-3.51,3.1-7.02,4.75-10.73h.62c.46,1.28,1.02,2.52,1.65,3.72.62,1.44,1.03,2.68,1.65,4.13s1.24,2.89,1.65,4.13c.62,1.44,1.03,2.68,1.65,3.92.4,1.07.88,2.1,1.44,3.1.41,1.03.62,1.86.83,2.27"/><path id="p" class="w" d="m164.51,71.21h-3.3c-.56-.03-1.12.04-1.65.21-.49-.05-.99.02-1.44.21,0-.41.21-.62.21-1.03.01-.36-.06-.71-.21-1.03,1.31-.03,2.62.03,3.92.21h7.84c1.31.03,2.62-.04,3.92-.21-.05.35-.12.69-.21,1.03-.01.36.06.71.21,1.03-.41,0-.83-.21-1.44-.21-.56.03-1.12-.04-1.65-.21h-3.3v15.27c0,1.24.21,2.48.21,3.92h-2.89c0-1.24.21-2.48.21-3.92v-9.08c-.34-2.05-.48-4.12-.41-6.19"/><path id="q" class="w" d="m182.26,73.48c0-1.24-.21-2.68-.21-3.92.29,0,.57.06.83.21h1.44c.29,0,.57-.06.83-.21,0,1.24-.21,2.68-.21,3.92v13c0,1.24.21,2.48.21,3.92h-2.89c0-1.24.21-2.48.21-3.92v-9.08c-.17-1.3-.24-2.61-.21-3.92"/><path id="r" class="w" d="m213.01,75.75c-.37-1.16-1-2.22-1.86-3.1-.75-.8-1.67-1.43-2.68-1.86-2.12-.83-4.48-.83-6.6,0-1.01.42-1.93,1.06-2.68,1.86-.78.92-1.41,1.97-1.86,3.1-.83,2.83-.83,5.84,0,8.67.37,1.16,1,2.22,1.86,3.1.75.8,1.67,1.43,2.68,1.86,2.12.83,4.48.83,6.6,0,1.01-.42,1.93-1.06,2.68-1.86.78-.92,1.41-1.97,1.86-3.1.83-2.83.83-5.84,0-8.67m-18.16-.41c.51-1.31,1.28-2.51,2.27-3.51.99-.95,2.19-1.66,3.51-2.06,1.47-.49,3-.77,4.54-.83,1.55-.05,3.1.24,4.54.83,1.3.44,2.5,1.14,3.51,2.06,1.06.95,1.84,2.16,2.27,3.51.59,1.44.87,2.99.83,4.54.06,1.56-.22,3.11-.83,4.54-.51,1.31-1.28,2.51-2.27,3.51-.99.95-2.19,1.66-3.51,2.06-2.97.83-6.11.83-9.08,0-1.3-.44-2.5-1.14-3.51-2.06-1.06-.95-1.84-2.16-2.27-3.51-.59-1.44-.87-2.99-.83-4.54.06-1.55.33-3.07.83-4.54"/><path id="s" class="w" d="m235.51,82.56c-2.68-2.89-5.16-5.57-7.84-8.46v16.51h-2.06c-.01-.36.06-.71.21-1.03.21-.41,0-1.24.21-1.86-.03-.83.04-1.66.21-2.48.21-.83,0-1.86.21-2.68v-13h.41c1.24,1.24,2.48,2.68,3.92,4.33,1.44,1.44,2.68,3.1,4.13,4.54,1.44,1.44,2.68,2.89,3.92,4.13,1.24,1.24,2.27,2.48,3.3,3.3v-10.32c.04-1.93-.03-3.86-.21-5.78.66.28,1.4.28,2.06,0,0,.69-.06,1.39-.21,2.06.03.97-.04,1.94-.21,2.89.04.97-.03,1.94-.21,2.89v13.21h-.41c-2.27-2.68-4.75-5.37-7.43-8.26"/><path id="t" class="w" d="m257.18,80.91h6.6l-3.3-7.64-3.3,7.64Zm13.42,9.49h-3.3c-.24-.54-.45-1.09-.62-1.65-.19-.72-.46-1.41-.83-2.06-.21-.62-.62-1.44-.83-2.27-.24-.7-.51-1.39-.83-2.06h-7.64c-.62,1.65-1.24,3.1-1.65,4.54-.31,1.2-.73,2.38-1.24,3.51h-2.06c1.65-3.51,3.3-7.02,4.75-10.53,1.44-3.51,3.1-7.02,4.75-10.73h.62c.46,1.28,1.02,2.52,1.65,3.72.62,1.44,1.03,2.68,1.65,4.13s1.24,2.89,1.65,4.13c.62,1.44,1.03,2.68,1.65,3.92.4,1.07.88,2.1,1.44,3.1.07.82.36,1.6.83,2.27"/><path id="u" class="w" d="m279.06,73.48c0-1.24-.21-2.68-.21-3.92.29,0,.57.06.83.21h1.44c.29,0,.57-.06.83-.21,0,1.24-.21,2.68-.21,3.92v15.48h4.13c1.38-.05,2.76-.18,4.13-.41,0,.41-.21.62-.21.83,0,.29.06.57.21.83h-10.73c0-1.24.21-2.48.21-3.92v-9.08c-.35-1.21-.49-2.46-.41-3.72"/></g></svg>