<svg width="168" height="45" viewBox="0 0 168 45" fill="none" xmlns="http://www.w3.org/2000/svg">
  <path fill-rule="evenodd" clip-rule="evenodd" d="M13.8972 13.7972L13.0713 4.82514L12.0235 5.2127L8.10721 2.36197L9.56685 10.7419L13.122 14.1654L13.8972 13.7972ZM21.4235 9.71703V1.76556L20.5195 2.07776L16.7932 0L17.4988 7.50362L20.8236 10.0335L21.4257 9.71703H21.4235Z" fill="#F47920"/>
  <path fill-rule="evenodd" clip-rule="evenodd" d="M21.4236 23.8653L19.6809 24.9096L19.3704 20.0952C19.3704 20.0952 21.4912 19.0143 22.1228 18.7366C22.7544 18.461 23.7662 18.2715 24.1211 18.9777C24.421 19.5763 24.8245 21.6863 21.4236 23.8631M22.6551 9.93461L7.47776 17.6277L0 10.6925L5.39497 37.5118L11.1807 44.2639L20.5469 38.4139L20.097 31.3818C20.097 31.3818 22.8748 29.851 24.6069 28.8002C26.8523 27.4438 33.5844 23.1828 33.5844 14.1461C33.5844 7.75135 28.5211 6.93747 22.6572 9.93461" fill="#F47920"/>
  <path fill-rule="evenodd" clip-rule="evenodd" d="M55.9291 20.0233C55.6123 21.8922 54.2054 22.1505 52.9338 22.1505H51.7044L52.3867 18.0445H53.6245C54.8962 18.0445 56.1974 18.2577 55.9312 20.0233M61.3769 19.907C62.1395 15.4457 59.349 14.2012 57.1163 14.2012H47.767L44.985 30.7587H50.4349L51.2143 25.9982H55.1264C57.9781 25.9982 60.6545 24.224 61.3769 19.907ZM69.5243 24.3661C69.2286 26.1683 68.8378 27.4946 67.8471 27.4946C66.8564 27.4946 66.9219 26.1661 67.226 24.364C67.469 22.9041 67.8471 21.6747 68.8378 21.6747C69.8285 21.6747 69.7651 22.9041 69.5243 24.364M74.9784 24.3661C75.6987 20.2063 73.7089 18.1048 69.425 18.1048C65.1411 18.1048 62.5366 20.2063 61.8121 24.3661C61.0917 28.6444 62.9401 31.0537 67.2641 31.0537C71.5881 31.0537 74.2644 28.6444 74.9784 24.3661ZM92.5089 30.7587H86.1359L86.2669 22.3895H86.2289L83.4976 30.7587H77.0823L76.5732 18.3934H81.6091L81.4781 26.4955H81.5077L83.9771 18.3934H90.1557L89.972 26.4955L92.511 18.3934H97.2068L92.511 30.7587H92.5089ZM104.651 23.3951H101.981C102.074 22.4326 102.604 20.9685 103.761 20.9685C104.919 20.9685 104.839 22.4628 104.651 23.3951ZM108.624 26.0219L108.768 25.2963C109.551 21.1343 108.525 18.1048 104.41 18.1048C100.092 18.1048 97.4878 20.2063 96.7653 24.3661C96.0513 28.6444 97.9335 31.0537 102.255 31.0537C104.034 31.0537 105.677 30.8341 107.126 30.3453L107.676 27.1436C106.78 27.6453 105.472 27.9231 104.07 27.9231C102.564 27.9231 101.398 27.5699 101.537 26.0219H108.624ZM118.502 22.9989C117.065 22.9989 115.631 24.4372 115.314 26.263L114.57 30.7587H109.458L111.543 18.3934H116.341L115.863 21.1946H115.901C116.824 19.4462 118.056 18.1027 119.632 18.1027C119.951 18.1027 120.255 18.191 120.462 18.2534L119.632 23.1797C119.431 23.0807 118.987 22.9967 118.504 22.9967M134.351 18.9489C134.146 20.2041 133.064 20.5615 132.126 20.5615H130.732L131.273 17.3211H132.756C133.738 17.3211 134.562 17.7173 134.348 18.9489M138.787 26.1661C139.061 24.5061 138.094 22.7147 136.176 22.3895V22.3637C138.153 21.7824 139.429 20.5615 139.805 18.29C140.358 15.1335 138.094 14.2012 135.629 14.2012H126.676L123.905 30.7587H132.126C135.081 30.7587 138.064 30.3432 138.789 26.1661M133.4 25.6321C133.193 26.9219 132.027 27.3525 131.03 27.3525H129.594L130.147 23.9742H131.617C132.65 23.9742 133.634 24.2262 133.4 25.6321ZM147.052 30.7587L147.397 28.6422H147.373C146.499 30.3712 144.957 31.0515 143.531 31.0515C140.814 31.0515 140.06 29.3979 140.466 26.9929L141.906 18.3912H147.054L145.859 25.5266C145.719 26.235 145.548 27.2104 146.44 27.2104C147.331 27.2104 147.504 26.235 147.637 25.5266L148.841 18.3912H154.002L151.923 30.7566H147.052V30.7587ZM163.254 28.7542C161.551 32.5867 160.077 36.0532 156.066 36.0532C154.724 36.0532 153.731 35.8121 152.772 35.6162L153.355 32.0915C153.767 32.2401 154.133 32.3456 154.857 32.3456C155.861 32.3456 156.545 31.8051 156.638 31.1592C156.811 30.2269 156.402 28.4269 156.192 27.079L154.961 18.3934H160.305V25.996H160.347L162.922 18.3934H167.855L163.252 28.7542H163.254Z" fill="#4A1E6B"/>
</svg>
