<svg width="512" height="512" viewBox="0 0 512 512" fill="none" xmlns="http://www.w3.org/2000/svg">
<path fill-rule="evenodd" clip-rule="evenodd" d="M447.03 379.855C445.924 376.693 446.49 373.198 448.441 370.476C471.572 338.218 485 299.773 485 258.5C485 144.453 382.473 52 256 52C129.527 52 27 144.453 27 258.5C27 372.547 129.527 465 256 465C301.69 465 344.255 452.934 379.989 432.143C382.441 430.716 385.371 430.332 388.087 431.15L455.208 451.362C463.034 453.719 470.229 446.201 467.531 438.486L447.03 379.855Z" fill="#4E46DC" style="fill:#4E46DC;fill:color(display-p3 0.3059 0.2745 0.8627);fill-opacity:1;"/>
<path d="M302.718 171.713C302.821 173.077 302.833 174.337 302.756 175.494C302.678 176.652 302.601 177.809 302.523 178.967L301.73 190.83L289.945 340.888L289.751 343.782C289.674 344.939 289.269 346.656 288.535 348.932C288.277 349.883 287.917 350.925 287.454 352.057C287.004 352.995 286.547 354.03 286.084 355.162C284.964 357.412 283.498 359.058 281.684 360.099C280.038 361.539 277.459 362.433 273.948 362.779C268.469 363.575 263.582 362.763 259.288 360.345C256.883 358.634 255.276 356.588 254.467 354.209C254.107 353.798 253.76 353.193 253.425 352.396C253.451 352.01 253.297 351.418 252.963 350.621C252.642 349.63 252.417 348.647 252.288 347.669C252.173 346.499 252.057 345.328 251.942 344.158C252.007 343.194 251.975 342.223 251.846 341.245C251.911 340.281 251.879 339.31 251.75 338.332C251.429 337.342 251.288 336.558 251.327 335.979C251.378 335.207 251.436 334.339 251.501 333.375C251.938 332.629 252.228 331.195 252.37 329.073L254.189 306.234L256.918 269.794L241.293 268.749L182.535 265.108L177.387 333.357L177.193 336.25C177.116 337.407 176.71 339.124 175.977 341.4C175.719 342.352 175.359 343.394 174.896 344.525C174.445 345.464 173.988 346.499 173.525 347.631C172.406 349.881 170.939 351.527 169.126 352.568C167.479 354.008 164.901 354.901 161.39 355.247C155.911 356.043 151.024 355.232 146.729 352.813C144.878 351.527 143.174 349.475 141.619 346.658C141.285 345.861 141.131 345.269 141.156 344.883L140.404 343.089C140.083 342.099 139.858 341.115 139.73 340.138C139.615 338.967 139.499 337.797 139.384 336.627C139.448 335.662 139.416 334.691 139.288 333.714C139.16 332.736 139.031 331.759 138.903 330.782C138.813 329.225 138.923 327.586 139.232 325.863L139.522 321.522L141.341 298.683L144.766 256.187C145.372 250.027 145.894 243.667 146.333 237.109C146.772 230.55 147.224 223.798 147.689 216.854C147.96 209.897 148.277 203.717 148.638 198.316C149.193 192.928 149.889 186.871 150.726 180.145L150.804 178.987C151.126 177.071 151.351 175.149 151.48 173.22C151.622 171.098 151.861 168.982 152.195 166.873C152.517 164.957 152.929 163.144 153.431 161.434C154.139 159.543 155.04 157.666 156.133 155.801C156.815 154.297 157.671 153.095 158.7 152.195C159.742 151.102 160.97 150.118 162.385 149.244C165.575 147.908 168.713 147.342 171.799 147.549C173.343 147.652 174.686 147.839 175.831 148.109C176.988 148.187 178.139 148.361 179.284 148.631C181.586 148.979 183.727 150.285 185.707 152.549C187.159 154.002 188.117 155.616 188.58 157.391C189.376 159.963 189.807 162.221 189.87 164.162C189.973 165.526 189.986 166.786 189.908 167.943C189.831 169.101 189.753 170.258 189.676 171.416L188.882 183.279L185.109 230.984C186.652 231.087 188.388 231.203 190.317 231.332C192.439 231.474 194.857 231.539 197.57 231.527C207.601 232.198 217.529 232.959 227.354 233.81C237.372 234.675 247.879 235.474 258.874 236.21L259.164 236.229C259.745 227.549 260.3 219.254 260.829 211.345C261.551 203.449 262.395 195.174 263.362 186.519C263.491 184.59 263.62 182.661 263.749 180.732C264.084 178.623 264.419 176.514 264.754 174.405C265.076 172.489 265.488 170.675 265.99 168.965C266.697 167.075 267.598 165.197 268.692 163.333C269.181 161.816 269.94 160.607 270.969 159.707C272.204 158.627 273.625 157.656 275.233 156.795C278.037 155.433 281.078 154.861 284.358 155.08C285.901 155.184 287.245 155.371 288.389 155.641C289.74 155.731 290.89 155.905 291.842 156.163C294.517 156.729 296.658 158.035 298.265 160.08C299.744 161.148 300.701 162.762 301.138 164.923C301.446 166.106 301.658 167.283 301.774 168.453C302.095 169.443 302.41 170.53 302.718 171.713ZM363.518 257.163C363.157 262.564 362.75 268.641 362.298 275.392C362.04 282.157 361.665 289.204 361.174 296.535C360.697 303.672 360.219 310.809 359.742 317.947C359.277 324.891 358.748 331.347 358.155 337.314C357.769 340.195 357.266 343.358 356.648 346.805C356.043 350.058 355.065 353.093 353.714 355.909C352.363 358.725 350.369 361.014 347.732 362.775C345.301 364.356 342.067 364.915 338.028 364.451C332.074 363.665 327.908 360.77 325.53 355.767C323.345 350.777 322.35 343.928 322.545 335.222C322.842 330.785 323.088 325.667 323.282 319.867C323.669 314.08 323.967 308.19 324.174 302.197C324.574 296.217 324.961 290.43 325.335 284.836C325.723 279.049 326.071 273.84 326.381 269.211C326.562 266.51 326.685 263.224 326.75 259.353C327.008 255.495 327.369 251.547 327.833 247.509C328.297 243.471 329.037 239.645 330.054 236.032C331.084 232.225 332.551 229.127 334.455 226.735C335.908 225.282 337.915 224.254 340.474 223.65C343.046 222.853 345.683 222.545 348.384 222.726C351.277 222.92 353.945 223.582 356.389 224.715C359.025 225.86 360.863 227.339 361.905 229.153C362.599 230.362 363.068 232.04 363.312 234.188C363.555 236.336 363.683 238.767 363.696 241.48C363.914 244.014 363.926 246.727 363.732 249.621C363.744 252.334 363.673 254.848 363.518 257.163ZM356.434 197.978C350.35 199.121 345.374 198.207 341.504 195.235C337.839 192.084 335.712 187.678 335.122 182.02C334.621 177.917 335.149 174.368 336.706 171.372C338.263 168.376 340.443 166.196 343.247 164.834C346.064 163.278 349.202 162.713 352.661 163.139C356.121 163.564 359.502 165.146 362.807 167.887C365.931 170.421 368.065 173.276 369.209 176.453C370.546 179.643 370.828 182.665 370.056 185.52C369.476 188.388 368.042 191.004 365.752 193.37C363.475 195.543 360.369 197.079 356.434 197.978Z" fill="white" style="fill:white;fill-opacity:1;"/>
</svg>
