<svg width="512" height="512" viewBox="0 0 512 512" fill="none" xmlns="http://www.w3.org/2000/svg">
<path fill-rule="evenodd" clip-rule="evenodd" d="M447.03 379.855C445.924 376.693 446.49 373.198 448.441 370.476C471.572 338.218 485 299.773 485 258.5C485 144.453 382.473 52 256 52C129.527 52 27 144.453 27 258.5C27 372.547 129.527 465 256 465C301.69 465 344.255 452.934 379.989 432.143C382.441 430.716 385.371 430.332 388.087 431.15L455.208 451.362C463.034 453.719 470.229 446.201 467.531 438.486L447.03 379.855Z" fill="#4E46DC" style="fill:#4E46DC;fill:color(display-p3 0.3059 0.2745 0.8627);fill-opacity:1;"/>
<path d="M174.251 323.378C178.617 319.775 181.061 315.247 181.584 309.795C182.106 304.343 180.566 299.433 176.964 295.067C173.571 290.721 169.148 288.287 163.696 287.764C158.243 287.242 153.334 288.782 148.968 292.384C144.811 296.007 142.472 300.545 141.949 305.997C141.427 311.449 142.862 316.348 146.255 320.695C149.878 324.851 154.415 327.191 159.867 327.713C165.32 328.236 170.114 326.79 174.251 323.378Z" fill="white" style="fill:white;fill-opacity:1;"/>
<path d="M185.404 206.991C189.77 203.388 192.215 198.861 192.737 193.408C193.26 187.956 191.72 183.047 188.117 178.68C184.724 174.334 180.302 171.9 174.849 171.377C169.397 170.855 164.488 172.395 160.121 175.998C155.965 179.62 153.625 184.158 153.103 189.61C152.58 195.062 154.016 199.962 157.408 204.308C161.031 208.464 165.569 210.804 171.021 211.326C176.473 211.849 181.268 210.404 185.404 206.991Z" fill="white" style="fill:white;fill-opacity:1;"/>
<path d="M278.977 143.57C291.92 144.805 298.392 145.423 303.78 146.544C349.621 156.083 382.706 196.154 383.397 242.972C383.478 248.474 382.86 254.946 381.624 267.89C380.388 280.833 379.771 287.305 378.65 292.693C369.111 338.534 329.04 371.619 282.222 372.31C276.719 372.391 270.248 371.773 257.304 370.537L228.332 367.771C221.941 367.16 218.745 366.855 216.264 365.706C211.865 363.669 208.627 359.747 207.46 355.043C206.801 352.389 207.106 349.193 207.716 342.802L225.036 161.42C225.646 155.028 225.951 151.832 227.1 149.351C229.138 144.953 233.059 141.715 237.764 140.547C240.418 139.888 243.613 140.193 250.005 140.803L278.977 143.57ZM272.592 185.151C272.04 185.098 271.764 185.072 271.53 185.077C269.679 185.118 268.098 186.423 267.707 188.233C267.658 188.462 267.632 188.738 267.579 189.29L255.145 319.504C255.093 320.056 255.066 320.332 255.071 320.566C255.112 322.417 256.418 323.998 258.227 324.389C258.457 324.438 258.733 324.464 259.284 324.517L261.677 324.745C268.148 325.363 271.384 325.673 274.134 325.695C304.706 325.937 331.04 304.194 336.588 274.128C337.087 271.423 337.396 268.187 338.014 261.716C338.631 255.245 338.941 252.009 338.963 249.259C339.205 218.687 317.462 192.353 287.396 186.805C284.691 186.306 281.455 185.997 274.984 185.379L272.592 185.151Z" fill="white" style="fill:white;fill-opacity:1;"/>
</svg>
